<svg xmlns="http://www.w3.org/2000/svg" viewBox="0 0 480 300" class="art-scene art-house" aria-hidden="true" focusable="false"><rect x="0" y="0" width="480" height="300" rx="0" fill="#fbf4e6"/><circle cx="379.20000000000005" cy="75" r="42.00000000000001" fill="#ffe3a0"/><path d="M0 189Q96 159 192 189T480 177V300H0Z" fill="#e9dcc4" /><path d="M0 263Q210 245 480 263V300H0Z" fill="#d7ddca" /><rect x="0" y="277" width="480" height="23" rx="0" fill="#e9dcc4"/><path d="M0 279L480 279" fill="none" stroke="#fbf4e6" stroke-width="3" stroke-linecap="round"/><rect x="99" y="117" width="275" height="148" rx="3" fill="#fbf4e6"/><rect x="137" y="75" width="198" height="66" rx="0" fill="#e9dcc4"/><path d="M85 120L135 77L205 120Z" fill="#d97562" /><path d="M202 120L335 76L385 120Z" fill="#234c50" /><rect x="127" y="153" width="47" height="52" rx="2" fill="#234c50"/><rect x="125" y="151" width="47" height="52" rx="2" fill="#ffe3a0"/><path d="M148.5 151L148.5 203" fill="none" stroke="#e9dcc4" stroke-width="2" stroke-linecap="round"/><path d="M125 177L172 177" fill="none" stroke="#e9dcc4" stroke-width="2" stroke-linecap="round"/><rect x="289" y="153" width="52" height="52" rx="2" fill="#234c50"/><rect x="287" y="151" width="52" height="52" rx="2" fill="#ffe3a0"/><path d="M313 151L313 203" fill="none" stroke="#e9dcc4" stroke-width="2" stroke-linecap="round"/><path d="M287 177L339 177" fill="none" stroke="#e9dcc4" stroke-width="2" stroke-linecap="round"/><rect x="211" y="94" width="36" height="28" rx="2" fill="#234c50"/><rect x="209" y="92" width="36" height="28" rx="2" fill="#ffe3a0"/><path d="M227 92L227 120" fill="none" stroke="#e9dcc4" stroke-width="2" stroke-linecap="round"/><path d="M209 106L245 106" fill="none" stroke="#e9dcc4" stroke-width="2" stroke-linecap="round"/><rect x="205" y="165" width="50" height="100" rx="3" fill="#8db6a0"/><rect x="213" y="178" width="34" height="38" rx="2" fill="#ffe3a0"/><circle cx="245" cy="229" r="3" fill="#ed9b53"/><rect x="186" y="263" width="86" height="8" rx="0" fill="#e9dcc4"/><g transform="translate(112 248) scale(0.9)"><rect x="-8" y="0" width="16" height="16" rx="2" fill="#d97562"/><path d="M0 0L0 -23" fill="none" stroke="#234c50" stroke-width="2" stroke-linecap="round"/><path d="M0 -7Q-23 -5 -19 -22Q-3 -23 0 -7Z" fill="#8db6a0" /><path d="M0 -15Q2 -34 19 -29Q23 -15 0 -15Z" fill="#8db6a0" /></g><g transform="translate(357 248) scale(1.2)"><rect x="-8" y="0" width="16" height="16" rx="2" fill="#d97562"/><path d="M0 0L0 -23" fill="none" stroke="#234c50" stroke-width="2" stroke-linecap="round"/><path d="M0 -7Q-23 -5 -19 -22Q-3 -23 0 -7Z" fill="#8db6a0" /><path d="M0 -15Q2 -34 19 -29Q23 -15 0 -15Z" fill="#8db6a0" /></g><rect x="277" y="208" width="71" height="6" rx="0" fill="#d97562"/><path d="M124 218L171 218" fill="none" stroke="#e9dcc4" stroke-width="3" stroke-linecap="round"/><g transform="translate(48 265) scale(0.8)"><rect x="-5" y="-42" width="10" height="48" rx="2" fill="#234c50"/><circle cx="-14" cy="-54" r="24" fill="#8db6a0"/><circle cx="12" cy="-64" r="30" fill="#8db6a0"/><circle cx="27" cy="-47" r="20" fill="#8db6a0"/><path d="M0 -40L15 -58" fill="none" stroke="#234c50" stroke-width="2" stroke-linecap="round"/></g><g transform="translate(430 265) scale(1.05)"><rect x="-5" y="-42" width="10" height="48" rx="2" fill="#234c50"/><circle cx="-14" cy="-54" r="24" fill="#8db6a0"/><circle cx="12" cy="-64" r="30" fill="#8db6a0"/><circle cx="27" cy="-47" r="20" fill="#8db6a0"/><path d="M0 -40L15 -58" fill="none" stroke="#234c50" stroke-width="2" stroke-linecap="round"/></g><circle cx="397" cy="273" r="7" fill="#8db6a0"/><circle cx="87" cy="269" r="5" fill="#ed9b53"/><g transform="translate(75 274) scale(0.57)"><circle cx="0" cy="-39" r="6" fill="#ed9b53"/><path d="M-7 -30Q0 -34 7 -30L10 -10H-10Z" fill="#d97562" /><path d="M-4 -10L-6 8" fill="none" stroke="#234c50" stroke-width="3" stroke-linecap="round"/><path d="M5 -10L9 8" fill="none" stroke="#234c50" stroke-width="3" stroke-linecap="round"/><path d="M-7 -26L-15 -13" fill="none" stroke="#234c50" stroke-width="3" stroke-linecap="round"/><path d="M7 -26L16 -19" fill="none" stroke="#234c50" stroke-width="3" stroke-linecap="round"/><rect x="11" y="-20" width="11" height="13" rx="2" fill="#ed9b53"/></g></svg>
