<svg preserveAspectRatio="xMidYMid slice" xmlns="http://www.w3.org/2000/svg" viewBox="0 0 480 300" class="art-scene art-house" aria-hidden="true" focusable="false"><defs><linearGradient id="hy-sky-dusk" x1="0" y1="0" x2="0" y2="1"><stop offset="0" stop-color="#2c3a5c"/><stop offset="0.58" stop-color="#7b6380"/><stop offset="1" stop-color="#e9a77a"/></linearGradient><linearGradient id="hy-sky-morning" x1="0" y1="0" x2="0" y2="1"><stop offset="0" stop-color="#b9d3df"/><stop offset="0.58" stop-color="#d9e1d8"/><stop offset="1" stop-color="#f6e7cf"/></linearGradient><linearGradient id="hy-sky-day" x1="0" y1="0" x2="0" y2="1"><stop offset="0" stop-color="#9cc3cf"/><stop offset="0.58" stop-color="#c9dbd5"/><stop offset="1" stop-color="#f3e3c4"/></linearGradient><linearGradient id="hy-sky-evening" x1="0" y1="0" x2="0" y2="1"><stop offset="0" stop-color="#1f2a44"/><stop offset="0.58" stop-color="#4a4360"/><stop offset="1" stop-color="#c7785c"/></linearGradient><linearGradient id="hy-sky-golden" x1="0" y1="0" x2="0" y2="1"><stop offset="0" stop-color="#e89a5c"/><stop offset="0.58" stop-color="#f3bd7e"/><stop offset="1" stop-color="#fde3b0"/></linearGradient><linearGradient id="hy-sky-bluehour" x1="0" y1="0" x2="0" y2="1"><stop offset="0" stop-color="#33476b"/><stop offset="0.58" stop-color="#5f7393"/><stop offset="1" stop-color="#9fb2c6"/></linearGradient><linearGradient id="hy-glass-dusk" x1="0" y1="0" x2=".35" y2="1"><stop offset="0" stop-color="#2c3a5c"/><stop offset="0.7" stop-color="#e9a77a"/><stop offset="1" stop-color="#a98875"/></linearGradient><linearGradient id="hy-glass-morning" x1="0" y1="0" x2=".35" y2="1"><stop offset="0" stop-color="#b9d3df"/><stop offset="0.7" stop-color="#f6e7cf"/><stop offset="1" stop-color="#cdccbf"/></linearGradient><linearGradient id="hy-glass-day" x1="0" y1="0" x2=".35" y2="1"><stop offset="0" stop-color="#9cc3cf"/><stop offset="0.7" stop-color="#f3e3c4"/><stop offset="1" stop-color="#c4c4af"/></linearGradient><linearGradient id="hy-glass-evening" x1="0" y1="0" x2=".35" y2="1"><stop offset="0" stop-color="#1f2a44"/><stop offset="0.7" stop-color="#c7785c"/><stop offset="1" stop-color="#8a5f57"/></linearGradient><linearGradient id="hy-glass-golden" x1="0" y1="0" x2=".35" y2="1"><stop offset="0" stop-color="#e89a5c"/><stop offset="0.7" stop-color="#fde3b0"/><stop offset="1" stop-color="#cfb38e"/></linearGradient><linearGradient id="hy-glass-bluehour" x1="0" y1="0" x2=".35" y2="1"><stop offset="0" stop-color="#33476b"/><stop offset="0.7" stop-color="#9fb2c6"/><stop offset="1" stop-color="#77889c"/></linearGradient><radialGradient id="hy-glow" ><stop offset="0" stop-color="#ffe2a0" stop-opacity="0.85"/><stop offset="0.45" stop-color="#ffc76e" stop-opacity="0.32"/><stop offset="1" stop-color="#ffb45a" stop-opacity="0"/></radialGradient><radialGradient id="hy-sun" ><stop offset="0" stop-color="#fff8e6" stop-opacity="0.95"/><stop offset="0.25" stop-color="#ffe7b8" stop-opacity="0.55"/><stop offset="1" stop-color="#ffd7a0" stop-opacity="0"/></radialGradient><radialGradient id="hy-lamp" ><stop offset="0" stop-color="#fff1c8" stop-opacity="0.9"/><stop offset="0.5" stop-color="#ffd27a" stop-opacity="0.25"/><stop offset="1" stop-color="#ffd27a" stop-opacity="0"/></radialGradient><radialGradient id="hy-vignette" cx=".45" cy=".42" r=".75"><stop offset="0.55" stop-color="#1b2233" stop-opacity="0"/><stop offset="1" stop-color="#1b2233" stop-opacity="0.32"/></radialGradient><linearGradient id="hy-haze" x1="0" y1="0" x2="0" y2="1"><stop offset="0" stop-color="#ffffff" stop-opacity="0"/><stop offset="1" stop-color="#ffffff" stop-opacity="0.38"/></linearGradient><linearGradient id="hy-fade" x1="0" y1="0" x2="0" y2="1"><stop offset="0" stop-color="#1b2233" stop-opacity="0"/><stop offset="1" stop-color="#1b2233" stop-opacity="0.3"/></linearGradient><linearGradient id="hy-shine" x1="0" y1="0" x2="1" y2="1"><stop offset="0" stop-color="#ffffff" stop-opacity="0.55"/><stop offset="0.35" stop-color="#ffffff" stop-opacity="0"/><stop offset="0.6" stop-color="#ffffff" stop-opacity="0.12"/><stop offset="0.75" stop-color="#ffffff" stop-opacity="0"/></linearGradient><linearGradient id="hy-facelight" x1="0" y1="0" x2="1" y2="1"><stop offset="0" stop-color="#fff6e0" stop-opacity="0.2"/><stop offset="0.45" stop-color="#fff6e0" stop-opacity="0"/><stop offset="1" stop-color="#101a2a" stop-opacity="0.16"/></linearGradient><linearGradient id="hy-ground" x1="0" y1="0" x2="0" y2="1"><stop offset="0" stop-color="#000000" stop-opacity="0"/><stop offset="1" stop-color="#000000" stop-opacity="0.22"/></linearGradient><linearGradient id="hy-water" x1="0" y1="0" x2="0" y2="1"><stop offset="0" stop-color="#9fbcc4"/><stop offset="0.5" stop-color="#6f8f9b"/><stop offset="1" stop-color="#41606e"/></linearGradient><linearGradient id="hy-icon-hl" x1="0" y1="0" x2=".6" y2="1"><stop offset="0" stop-color="#ffffff" stop-opacity="0.7"/><stop offset="0.55" stop-color="#ffffff" stop-opacity="0"/></linearGradient><linearGradient id="hy-chart" x1="0" y1="0" x2="0" y2="1"><stop offset="0" stop-color="#2f7a68" stop-opacity="0.26"/><stop offset="1" stop-color="#2f7a68" stop-opacity="0"/></linearGradient><linearGradient id="hy-chart-up" x1="0" y1="0" x2="0" y2="1"><stop offset="0" stop-color="#a5483a" stop-opacity="0.2"/><stop offset="1" stop-color="#a5483a" stop-opacity="0"/></linearGradient><linearGradient id="hy-steam" x1="0" y1="0" x2="0" y2="1"><stop offset="0" stop-color="#ffffff" stop-opacity="0"/><stop offset="0.5" stop-color="#ffffff" stop-opacity="0.55"/><stop offset="1" stop-color="#ffffff" stop-opacity="0"/></linearGradient><pattern id="hy-brick" width="16" height="8" patternUnits="userSpaceOnUse"><path d="M0 .5H16M0 4.5H16M5 .5V4.5M13 4.5V8.5" stroke="#3a2018" stroke-opacity=".22" stroke-width=".7"/><rect x="5.4" y=".9" width="7.2" height="3.2" fill="#000" fill-opacity=".05"/><rect x="0" y="4.9" width="4.6" height="3.2" fill="#fff" fill-opacity=".06"/></pattern><pattern id="hy-tile" width="6" height="6" patternUnits="userSpaceOnUse"><path d="M0 .3H6M.3 0V6" stroke="#2d3a3a" stroke-opacity=".12" stroke-width=".5"/></pattern><pattern id="hy-roof" width="10" height="6" patternUnits="userSpaceOnUse"><path d="M0 6Q5 .8 10 6" stroke="#2a1a14" stroke-opacity=".28" stroke-width=".8" fill="none"/><path d="M5 0V3" stroke="#fff" stroke-opacity=".12" stroke-width=".8"/></pattern><pattern id="hy-wood" width="36" height="7" patternUnits="userSpaceOnUse"><path d="M0 .4H36M22 .4V7" stroke="#3b2414" stroke-opacity=".25" stroke-width=".7"/><path d="M3 3.5Q9 2.6 15 3.6" stroke="#3b2414" stroke-opacity=".1" stroke-width=".5" fill="none"/></pattern><pattern id="hy-shutter" width="8" height="4" patternUnits="userSpaceOnUse"><path d="M0 .5H8" stroke="#1d2433" stroke-opacity=".28" stroke-width=".8"/><path d="M0 1.6H8" stroke="#fff" stroke-opacity=".14" stroke-width=".6"/></pattern><pattern id="hy-hatch" width="5" height="5" patternUnits="userSpaceOnUse"><path d="M-1 6L6 -1" stroke="#1d2433" stroke-opacity=".13" stroke-width=".6"/></pattern><pattern id="hy-dapple" width="14" height="12" patternUnits="userSpaceOnUse"><circle cx="3" cy="3" r="1.6" fill="#fff" fill-opacity=".16"/><circle cx="10" cy="8" r="1.2" fill="#fff" fill-opacity=".12"/><circle cx="8" cy="2" r="1" fill="#000" fill-opacity=".08"/><circle cx="2" cy="9" r="1.3" fill="#000" fill-opacity=".07"/></pattern><pattern id="hy-ripple" width="40" height="8" patternUnits="userSpaceOnUse"><path d="M2 3H14M22 6H36" stroke="#fff" stroke-opacity=".28" stroke-width=".8" stroke-linecap="round"/></pattern><pattern id="hy-grille" width="6" height="24" patternUnits="userSpaceOnUse"><path d="M3 0V24" stroke="#3c4547" stroke-opacity=".7" stroke-width=".9"/><path d="M0 12H6" stroke="#3c4547" stroke-opacity=".55" stroke-width=".7"/></pattern><pattern id="hy-corr" width="5" height="10" patternUnits="userSpaceOnUse"><path d="M1 0V10" stroke="#1d2433" stroke-opacity=".2" stroke-width="1"/><path d="M3 0V10" stroke="#fff" stroke-opacity=".16" stroke-width=".8"/></pattern><pattern id="hy-reed" width="3" height="6" patternUnits="userSpaceOnUse"><path d="M1.5 0V6" stroke="#5a3d1c" stroke-opacity=".3" stroke-width=".7"/></pattern><pattern id="hy-grass" width="9" height="6" patternUnits="userSpaceOnUse"><path d="M1 6L2 2M4 6L5 1M7 6L6.5 3" stroke="#1f3a22" stroke-opacity=".2" stroke-width=".6"/></pattern><pattern id="hy-paper" width="14" height="14" patternUnits="userSpaceOnUse"><path d="M0 13.5H14" stroke="#7a6a50" stroke-opacity=".12" stroke-width=".6"/></pattern></defs><rect x="0" y="0" width="480" height="300" fill="url(#hy-sky-golden)"/><circle cx="400" cy="66" r="84" fill="url(#hy-sun)" opacity="1"/><circle cx="400" cy="66" r="20" fill="#fff0c8"/><ellipse cx="95.8" cy="74.2" rx="41.2" ry="6.6" fill="#fae1c5" opacity="0.55"/><ellipse cx="106" cy="77.1" rx="28.8" ry="3.3" fill="#fee8b8" opacity="0.5"/><ellipse cx="175.7" cy="65.8" rx="28.3" ry="4.5" fill="#fae1c5" opacity="0.55"/><ellipse cx="182.8" cy="67.8" rx="19.8" ry="2.3" fill="#fee8b8" opacity="0.5"/><ellipse cx="297.8" cy="88.6" rx="30.7" ry="4.9" fill="#fae1c5" opacity="0.55"/><ellipse cx="305.5" cy="90.8" rx="21.5" ry="2.5" fill="#fee8b8" opacity="0.5"/><ellipse cx="439.5" cy="40.5" rx="41.3" ry="6.6" fill="#fae1c5" opacity="0.55"/><ellipse cx="449.8" cy="43.4" rx="28.9" ry="3.3" fill="#fee8b8" opacity="0.5"/><rect x="-10" y="96.9" width="37.5" height="75.1" fill="#f5cfa2"/><rect x="17" y="96.9" width="10.5" height="75.1" fill="#e2bd95" opacity="0.55"/><rect x="0.1" y="153.6" width="2.4" height="3" fill="#ffe6a8" opacity="0.8"/><rect x="11.2" y="148.2" width="2.4" height="3" fill="#ffe6a8" opacity="0.8"/><rect x="33" y="139.3" width="43.3" height="32.7" fill="#f5cfa2"/><rect x="64.2" y="139.3" width="12.1" height="32.7" fill="#e2bd95" opacity="0.55"/><rect x="80.8" y="133.5" width="51.5" height="38.5" fill="#f5cfa2"/><rect x="117.8" y="133.5" width="14.4" height="38.5" fill="#e2bd95" opacity="0.55"/><rect x="91.1" y="127.5" width="15.4" height="6" fill="#f5cfa2"/><rect x="124.8" y="154.6" width="2.4" height="3" fill="#ffe6a8" opacity="0.8"/><rect x="105.5" y="141.4" width="2.4" height="3" fill="#ffe6a8" opacity="0.8"/><rect x="111" y="146" width="2.4" height="3" fill="#ffe6a8" opacity="0.8"/><rect x="136.3" y="112.1" width="51.9" height="59.9" fill="#f5cfa2"/><rect x="173.6" y="112.1" width="14.5" height="59.9" fill="#e2bd95" opacity="0.55"/><rect x="154.1" y="143.4" width="2.4" height="3" fill="#ffe6a8" opacity="0.8"/><rect x="159.8" y="129.4" width="2.4" height="3" fill="#ffe6a8" opacity="0.8"/><rect x="189.5" y="93.4" width="59.2" height="78.6" fill="#f5cfa2"/><rect x="232.1" y="93.4" width="16.6" height="78.6" fill="#e2bd95" opacity="0.55"/><rect x="212.1" y="118.3" width="2.4" height="3" fill="#ffe6a8" opacity="0.8"/><rect x="215.2" y="113.2" width="2.4" height="3" fill="#ffe6a8" opacity="0.8"/><rect x="208.3" y="154.2" width="2.4" height="3" fill="#ffe6a8" opacity="0.8"/><rect x="250" y="96" width="50.8" height="76" fill="#f5cfa2"/><rect x="286.6" y="96" width="14.2" height="76" fill="#e2bd95" opacity="0.55"/><path d="M265.2 96L265.2 78.4" stroke="#e2bd95" stroke-width="1.2" fill="none" stroke-linecap="round"/><rect x="303.4" y="85.4" width="31.8" height="86.6" fill="#f5cfa2"/><rect x="326.3" y="85.4" width="8.9" height="86.6" fill="#e2bd95" opacity="0.55"/><rect x="310.1" y="94.8" width="2.4" height="3" fill="#ffe6a8" opacity="0.8"/><rect x="338.8" y="86.2" width="50.4" height="85.8" fill="#f5cfa2"/><rect x="375.1" y="86.2" width="14.1" height="85.8" fill="#e2bd95" opacity="0.55"/><rect x="352.3" y="147.7" width="2.4" height="3" fill="#ffe6a8" opacity="0.8"/><rect x="392.6" y="89.5" width="57.1" height="82.5" fill="#f5cfa2"/><rect x="433.7" y="89.5" width="16" height="82.5" fill="#e2bd95" opacity="0.55"/><rect x="419" y="97.7" width="2.4" height="3" fill="#ffe6a8" opacity="0.8"/><rect x="450.7" y="121.5" width="45.4" height="50.5" fill="#f5cfa2"/><rect x="483.4" y="121.5" width="12.7" height="50.5" fill="#e2bd95" opacity="0.55"/><rect x="459.8" y="115.5" width="13.6" height="6" fill="#f5cfa2"/><rect x="458.2" y="146.9" width="2.4" height="3" fill="#ffe6a8" opacity="0.8"/><rect x="0" y="125" width="480" height="47" fill="url(#hy-haze)" opacity="0.9"/><rect x="0" y="168" width="480" height="5" fill="#d7ae8a"/><path d="M-10 168Q60 124 130 168Q200 124 270 168" stroke="#d7ae8a" stroke-width="3" fill="none" stroke-linecap="round" stroke-linejoin="round"/><path d="M10 168L10 166.4" stroke="#d7ae8a" stroke-width="1" fill="none" stroke-linecap="round"/><path d="M30 168L30 164" stroke="#d7ae8a" stroke-width="1" fill="none" stroke-linecap="round"/><path d="M50 168L50 161.6" stroke="#d7ae8a" stroke-width="1" fill="none" stroke-linecap="round"/><path d="M70 168L70 159.2" stroke="#d7ae8a" stroke-width="1" fill="none" stroke-linecap="round"/><path d="M90 168L90 156.8" stroke="#d7ae8a" stroke-width="1" fill="none" stroke-linecap="round"/><path d="M110 168L110 154.4" stroke="#d7ae8a" stroke-width="1" fill="none" stroke-linecap="round"/><path d="M130 168L130 152" stroke="#d7ae8a" stroke-width="1" fill="none" stroke-linecap="round"/><path d="M150 168L150 154.4" stroke="#d7ae8a" stroke-width="1" fill="none" stroke-linecap="round"/><path d="M170 168L170 156.8" stroke="#d7ae8a" stroke-width="1" fill="none" stroke-linecap="round"/><path d="M190 168L190 159.2" stroke="#d7ae8a" stroke-width="1" fill="none" stroke-linecap="round"/><path d="M210 168L210 161.6" stroke="#d7ae8a" stroke-width="1" fill="none" stroke-linecap="round"/><path d="M230 168L230 164" stroke="#d7ae8a" stroke-width="1" fill="none" stroke-linecap="round"/><path d="M250 168L250 166.4" stroke="#d7ae8a" stroke-width="1" fill="none" stroke-linecap="round"/><path d="M370 214L420 214L384 206.3Z" fill="#8a6a5a" opacity="0.28"/><path d="M370 64L384 56.3V206.3L370 214Z" fill="#b49d8d"/><path d="M120 64L134 56.3H384L370 64Z" fill="#f1dec1"/><rect x="120" y="64" width="250" height="150" fill="#e4d1bc"/><rect x="120" y="64" width="250" height="150" fill="url(#hy-tile)"/><rect x="120" y="64" width="250" height="150" fill="url(#hy-facelight)"/><rect x="118" y="63" width="254" height="4" fill="#f1dec1"/><rect x="118" y="67" width="254" height="1.6" fill="#b49d8d" opacity="0.7"/><rect x="112" y="56" width="266" height="10" fill="#808381"/><rect x="112" y="64" width="266" height="2" fill="#8a6a5a" opacity="0.5"/><rect x="132.4" y="74.4" width="107.2" height="37.2" fill="#e6d2bc"/><rect x="134" y="76" width="104" height="34" fill="#ffe6a8"/><rect x="134" y="94.7" width="104" height="15.3" fill="#d38a3c" opacity="0.28"/><path d="M154.8 110V96.4Q167.3 92.3 179.8 96.4V110Z" fill="#c3a06f" opacity="0.5"/><path d="M186 76V110" stroke="#e6d2bc" stroke-width="1.2" fill="none" stroke-linecap="round" stroke-linejoin="round"/><path d="M134 76h104v2h-102.4v32h-1.6z" fill="#8a6a5a" opacity="0.4"/><rect x="131" y="111.6" width="110" height="2.6" fill="#efd7b9"/><circle cx="186" cy="93" r="93.6" fill="url(#hy-glow)" opacity="0.3"/><rect x="250.4" y="74.4" width="107.2" height="37.2" fill="#e6d2bc"/><rect x="252" y="76" width="104" height="34" fill="url(#hy-glass-golden)"/><rect x="252" y="76" width="104" height="34" fill="url(#hy-shine)"/><path d="M304 76V110" stroke="#e6d2bc" stroke-width="1.2" fill="none" stroke-linecap="round" stroke-linejoin="round"/><path d="M252 76h104v2h-102.4v32h-1.6z" fill="#8a6a5a" opacity="0.4"/><rect x="249" y="111.6" width="110" height="2.6" fill="#efd7b9"/><rect x="128" y="112" width="234" height="3" fill="#e3d4bb"/><rect x="128" y="115" width="234" height="6" fill="none" stroke="#484c4e" stroke-width="1"/><rect x="132.4" y="120.4" width="107.2" height="37.2" fill="#e6d2bc"/><rect x="134" y="122" width="104" height="34" fill="#efcb8b"/><rect x="134" y="143.1" width="104" height="12.9" fill="#d9af74"/><rect x="144.4" y="144.4" width="64.5" height="5.4" fill="#b0543f" rx="3"/><rect x="141.3" y="145.8" width="7.3" height="4.8" fill="#9a4635" rx="2"/><rect x="204.7" y="145.8" width="7.3" height="4.8" fill="#9a4635" rx="2"/><rect x="152.7" y="142.7" width="13.5" height="2.7" fill="#f0d9a8" rx="2" opacity="0.85"/><circle cx="221.4" cy="132.2" r="41.6" fill="url(#hy-lamp)" opacity="1"/><path d="M221.4 132.5L221.4 150.9" stroke="#6a5542" stroke-width="1.2" fill="none" stroke-linecap="round"/><path d="M214.1 133.2L217.2 129.5H225.5L228.6 133.2Z" fill="#f9d48a"/><ellipse cx="152.7" cy="151.6" rx="7.3" ry="2.4" fill="#2b2a33"/><circle cx="157.9" cy="148.5" r="4.7" fill="#2b2a33"/><path d="M155.8 147.2l1.6 -1.7l2.1 1.4M159 147.2l2.1 -1.7l1.2 1.7" fill="#2b2a33"/><path d="M146.5 152.9q-8.3 0.7 -6.2 -4.1" stroke="#2b2a33" stroke-width="1.4" fill="none" stroke-linecap="round" stroke-linejoin="round"/><rect x="179.8" y="126.8" width="20.8" height="5.8" fill="#7a5a3a"/><rect x="182.4" y="127.6" width="15.6" height="4.1" fill="#9cc3b0"/><path d="M182.4 131.7L189.1 129.1L198 131.7Z" fill="#e8b65e"/><path d="M186 122V156" stroke="#e6d2bc" stroke-width="1.2" fill="none" stroke-linecap="round" stroke-linejoin="round"/><path d="M134 122h104v2h-102.4v32h-1.6z" fill="#8a6a5a" opacity="0.4"/><rect x="131" y="157.6" width="110" height="2.6" fill="#efd7b9"/><circle cx="186" cy="139" r="93.6" fill="url(#hy-glow)" opacity="0.3"/><rect x="250.4" y="120.4" width="107.2" height="37.2" fill="#e6d2bc"/><rect x="252" y="122" width="104" height="34" fill="url(#hy-glass-golden)"/><rect x="252" y="122" width="104" height="34" fill="url(#hy-shine)"/><path d="M304 122V156" stroke="#e6d2bc" stroke-width="1.2" fill="none" stroke-linecap="round" stroke-linejoin="round"/><path d="M252 122h104v2h-102.4v32h-1.6z" fill="#8a6a5a" opacity="0.4"/><rect x="249" y="157.6" width="110" height="2.6" fill="#efd7b9"/><rect x="128" y="158" width="234" height="3" fill="#e3d4bb"/><rect x="128" y="161" width="234" height="6" fill="none" stroke="#484c4e" stroke-width="1"/><rect x="132.4" y="166.4" width="107.2" height="37.2" fill="#e6d2bc"/><rect x="134" y="168" width="104" height="34" fill="url(#hy-glass-golden)"/><rect x="134" y="168" width="104" height="34" fill="url(#hy-shine)"/><path d="M186 168V202" stroke="#e6d2bc" stroke-width="1.2" fill="none" stroke-linecap="round" stroke-linejoin="round"/><path d="M134 168h104v2h-102.4v32h-1.6z" fill="#8a6a5a" opacity="0.4"/><rect x="131" y="203.6" width="110" height="2.6" fill="#efd7b9"/><rect x="250.4" y="166.4" width="107.2" height="37.2" fill="#e6d2bc"/><rect x="252" y="168" width="104" height="34" fill="#63514c"/><rect x="336.2" y="195.2" width="10.4" height="4.1" fill="#b5654b"/><ellipse cx="336.2" cy="193.2" rx="7.3" ry="1.7" fill="#5f8f5c" transform="rotate(-30 341.4 195.2)"/><ellipse cx="346.6" cy="192.1" rx="7.3" ry="1.7" fill="#4f7f52" transform="rotate(30 341.4 195.2)"/><rect x="252" y="168" width="104" height="34" fill="url(#hy-glass-golden)" opacity="0.55"/><rect x="252" y="168" width="104" height="34" fill="url(#hy-shine)"/><path d="M304 168V202" stroke="#e6d2bc" stroke-width="1.2" fill="none" stroke-linecap="round" stroke-linejoin="round"/><path d="M252 168h104v2h-102.4v32h-1.6z" fill="#8a6a5a" opacity="0.4"/><rect x="249" y="203.6" width="110" height="2.6" fill="#efd7b9"/><rect x="128" y="204" width="234" height="3" fill="#e3d4bb"/><rect x="128" y="207" width="234" height="6" fill="none" stroke="#484c4e" stroke-width="1"/><path d="M0 214H480V300H0Z" fill="url(#hy-water)"/><path d="M0 214H480V300H0Z" fill="#fad8a1" opacity="0.35"/><path d="M0 214H480V300H0Z" fill="url(#hy-ripple)"/><g opacity="0.22"><rect x="120" y="214" width="250" height="70" fill="#e3cdb6"/><rect x="134" y="220" width="104" height="20" fill="#ffe6a8"/></g><rect x="150" y="230" width="70" height="2" fill="#ffe6a8" opacity="0.6"/><rect x="160" y="242" width="50" height="2" fill="#ffe6a8" opacity="0.45"/><rect x="0" y="204" width="480" height="10" fill="#bfaa92"/><rect x="0" y="212" width="480" height="3" fill="#8a6a5a" opacity="0.5"/><rect x="6" y="196" width="2" height="9" fill="#484c4e"/><rect x="28" y="196" width="2" height="9" fill="#484c4e"/><rect x="50" y="196" width="2" height="9" fill="#484c4e"/><rect x="72" y="196" width="2" height="9" fill="#484c4e"/><rect x="94" y="196" width="2" height="9" fill="#484c4e"/><rect x="116" y="196" width="2" height="9" fill="#484c4e"/><rect x="138" y="196" width="2" height="9" fill="#484c4e"/><rect x="160" y="196" width="2" height="9" fill="#484c4e"/><rect x="182" y="196" width="2" height="9" fill="#484c4e"/><rect x="204" y="196" width="2" height="9" fill="#484c4e"/><rect x="226" y="196" width="2" height="9" fill="#484c4e"/><rect x="248" y="196" width="2" height="9" fill="#484c4e"/><rect x="270" y="196" width="2" height="9" fill="#484c4e"/><rect x="292" y="196" width="2" height="9" fill="#484c4e"/><rect x="314" y="196" width="2" height="9" fill="#484c4e"/><rect x="336" y="196" width="2" height="9" fill="#484c4e"/><rect x="358" y="196" width="2" height="9" fill="#484c4e"/><rect x="380" y="196" width="2" height="9" fill="#484c4e"/><rect x="402" y="196" width="2" height="9" fill="#484c4e"/><rect x="424" y="196" width="2" height="9" fill="#484c4e"/><rect x="446" y="196" width="2" height="9" fill="#484c4e"/><rect x="468" y="196" width="2" height="9" fill="#484c4e"/><path d="M0 197L480 197" stroke="#484c4e" stroke-width="1.4" fill="none" stroke-linecap="round"/><ellipse cx="80" cy="205" rx="28.1" ry="3.9" fill="#8a6a5a" opacity="0.28"/><path d="M62.1 204C62.9 180.6 63.7 163.4 65.2 147.8H68.3C69.1 165 69.9 182.2 71.5 204Z" fill="#997e67"/><ellipse cx="64.8" cy="188.4" rx="1.7" ry="3.9" fill="#e4d2b3" opacity="0.75"/><ellipse cx="67.9" cy="174.4" rx="1.4" ry="3.1" fill="#e4d2b3" opacity="0.6"/><ellipse cx="65.6" cy="161.1" rx="1.2" ry="2.3" fill="#e4d2b3" opacity="0.5"/><path d="M66 168.1q-10.9 -7.8 -20.3 -23.4M66.8 160.3q12.5 -6.2 20.3 -23.4M66.8 151l0.8 -23.4" stroke="#997e67" stroke-width="2.4960000000000004" fill="none" stroke-linecap="round" stroke-linejoin="round"/><circle cx="48.8" cy="143.9" r="15.6" fill="#47705a"/><circle cx="69.1" cy="129.9" r="18.7" fill="#47705a"/><circle cx="88.6" cy="139.3" r="16.4" fill="#47705a"/><circle cx="61.3" cy="153.3" r="13.3" fill="#47705a"/><circle cx="80" cy="153.3" r="13.3" fill="#47705a"/><circle cx="67.6" cy="142.4" r="15.6" fill="#47705a"/><circle cx="45.7" cy="140" r="14" fill="#6f9a6a"/><circle cx="66" cy="126" r="16.8" fill="#6f9a6a"/><circle cx="85.5" cy="135.4" r="14.7" fill="#6f9a6a"/><circle cx="58.2" cy="149.4" r="11.9" fill="#6f9a6a"/><circle cx="76.9" cy="149.4" r="11.9" fill="#6f9a6a"/><circle cx="64.4" cy="138.5" r="14" fill="#6f9a6a"/><circle cx="41.8" cy="135.4" r="8.6" fill="#9cbf84" opacity="0.9"/><circle cx="62.1" cy="121.3" r="10.3" fill="#9cbf84" opacity="0.9"/><circle cx="81.6" cy="130.7" r="9" fill="#9cbf84" opacity="0.9"/><circle cx="54.3" cy="144.7" r="7.3" fill="#9cbf84" opacity="0.9"/><circle cx="73" cy="144.7" r="7.3" fill="#9cbf84" opacity="0.9"/><circle cx="60.5" cy="133.8" r="8.6" fill="#9cbf84" opacity="0.9"/><circle cx="64.4" cy="136.9" r="26.5" fill="url(#hy-dapple)"/><ellipse cx="442.6" cy="205" rx="25.2" ry="3.5" fill="#8a6a5a" opacity="0.28"/><path d="M426.5 204C427.2 183 427.9 167.6 429.3 153.6H432.1C432.8 169 433.5 184.4 434.9 204Z" fill="#997e67"/><ellipse cx="428.9" cy="190" rx="1.5" ry="3.5" fill="#e4d2b3" opacity="0.75"/><ellipse cx="431.7" cy="177.4" rx="1.3" ry="2.8" fill="#e4d2b3" opacity="0.6"/><ellipse cx="429.7" cy="165.5" rx="1" ry="2.1" fill="#e4d2b3" opacity="0.5"/><path d="M430 171.8q-9.8 -7 -18.2 -21M430.7 164.8q11.2 -5.6 18.2 -21M430.7 156.4l0.7 -21" stroke="#997e67" stroke-width="2.2399999999999998" fill="none" stroke-linecap="round" stroke-linejoin="round"/><circle cx="423" cy="152.9" r="11.9" fill="#47705a"/><circle cx="441.2" cy="148.7" r="12.6" fill="#47705a"/><circle cx="432.8" cy="140.3" r="11.2" fill="#47705a"/><circle cx="420.2" cy="149.4" r="10.7" fill="#6f9a6a"/><circle cx="438.4" cy="145.2" r="11.3" fill="#6f9a6a"/><circle cx="430" cy="136.8" r="10.1" fill="#6f9a6a"/><circle cx="416.7" cy="145.2" r="6.5" fill="#9cbf84" opacity="0.9"/><circle cx="434.9" cy="141" r="6.9" fill="#9cbf84" opacity="0.9"/><circle cx="426.5" cy="132.6" r="6.2" fill="#9cbf84" opacity="0.9"/><circle cx="428.6" cy="143.8" r="23.8" fill="url(#hy-dapple)"/><ellipse cx="396.5" cy="205" rx="6.8" ry="1.4" fill="#8a6a5a" opacity="0.3"/><path d="M390.5 193.5l-0.7 10.5M393.5 193.5l0.8 10.5" stroke="#4a3631" stroke-width="1.9500000000000002" fill="none" stroke-linecap="round" stroke-linejoin="round"/><path d="M387.9 182.3Q392 180 396.1 182.3L396.9 195H387.1Z" fill="#7e584c"/><path d="M387.9 182.3L387.1 195H389L389.8 181.8Z" fill="#ffe0b3" opacity="0.35"/><circle cx="392" cy="177.8" r="3.3" fill="#3c2f32"/><ellipse cx="407.6" cy="205" rx="5.4" ry="1.1" fill="#8a6a5a" opacity="0.3"/><path d="M402.8 195.6l-0.6 8.4M405.2 195.6l0.6 8.4" stroke="#41393b" stroke-width="1.56" fill="none" stroke-linecap="round" stroke-linejoin="round"/><path d="M400.7 186.6Q404 184.8 407.3 186.6L407.9 196.8H400.1Z" fill="#52677d"/><path d="M400.7 186.6L400.1 196.8H401.6L402.2 186.2Z" fill="#ffe0b3" opacity="0.35"/><circle cx="404" cy="183" r="2.6" fill="#3c2f32"/><path d="M300 262q22 -10 46 0l-6 8h-36z" fill="#6e5137"/><path d="M323 254L323 230" stroke="#6e5137" stroke-width="1.4" fill="none" stroke-linecap="round"/><path d="M324 232l14 14h-14z" fill="#f2e6cc" opacity="0.85"/><rect x="0" y="0" width="480" height="300" fill="url(#hy-vignette)" opacity="0.35"/></svg>
