<svg preserveAspectRatio="xMidYMid slice" xmlns="http://www.w3.org/2000/svg" viewBox="0 0 480 300" class="art-scene art-house" aria-hidden="true" focusable="false"><defs><linearGradient id="hy-sky-dusk" x1="0" y1="0" x2="0" y2="1"><stop offset="0" stop-color="#2c3a5c"/><stop offset="0.58" stop-color="#7b6380"/><stop offset="1" stop-color="#e9a77a"/></linearGradient><linearGradient id="hy-sky-morning" x1="0" y1="0" x2="0" y2="1"><stop offset="0" stop-color="#b9d3df"/><stop offset="0.58" stop-color="#d9e1d8"/><stop offset="1" stop-color="#f6e7cf"/></linearGradient><linearGradient id="hy-sky-day" x1="0" y1="0" x2="0" y2="1"><stop offset="0" stop-color="#9cc3cf"/><stop offset="0.58" stop-color="#c9dbd5"/><stop offset="1" stop-color="#f3e3c4"/></linearGradient><linearGradient id="hy-sky-evening" x1="0" y1="0" x2="0" y2="1"><stop offset="0" stop-color="#1f2a44"/><stop offset="0.58" stop-color="#4a4360"/><stop offset="1" stop-color="#c7785c"/></linearGradient><linearGradient id="hy-sky-golden" x1="0" y1="0" x2="0" y2="1"><stop offset="0" stop-color="#e89a5c"/><stop offset="0.58" stop-color="#f3bd7e"/><stop offset="1" stop-color="#fde3b0"/></linearGradient><linearGradient id="hy-sky-bluehour" x1="0" y1="0" x2="0" y2="1"><stop offset="0" stop-color="#33476b"/><stop offset="0.58" stop-color="#5f7393"/><stop offset="1" stop-color="#9fb2c6"/></linearGradient><linearGradient id="hy-glass-dusk" x1="0" y1="0" x2=".35" y2="1"><stop offset="0" stop-color="#2c3a5c"/><stop offset="0.7" stop-color="#e9a77a"/><stop offset="1" stop-color="#a98875"/></linearGradient><linearGradient id="hy-glass-morning" x1="0" y1="0" x2=".35" y2="1"><stop offset="0" stop-color="#b9d3df"/><stop offset="0.7" stop-color="#f6e7cf"/><stop offset="1" stop-color="#cdccbf"/></linearGradient><linearGradient id="hy-glass-day" x1="0" y1="0" x2=".35" y2="1"><stop offset="0" stop-color="#9cc3cf"/><stop offset="0.7" stop-color="#f3e3c4"/><stop offset="1" stop-color="#c4c4af"/></linearGradient><linearGradient id="hy-glass-evening" x1="0" y1="0" x2=".35" y2="1"><stop offset="0" stop-color="#1f2a44"/><stop offset="0.7" stop-color="#c7785c"/><stop offset="1" stop-color="#8a5f57"/></linearGradient><linearGradient id="hy-glass-golden" x1="0" y1="0" x2=".35" y2="1"><stop offset="0" stop-color="#e89a5c"/><stop offset="0.7" stop-color="#fde3b0"/><stop offset="1" stop-color="#cfb38e"/></linearGradient><linearGradient id="hy-glass-bluehour" x1="0" y1="0" x2=".35" y2="1"><stop offset="0" stop-color="#33476b"/><stop offset="0.7" stop-color="#9fb2c6"/><stop offset="1" stop-color="#77889c"/></linearGradient><radialGradient id="hy-glow" ><stop offset="0" stop-color="#ffe2a0" stop-opacity="0.85"/><stop offset="0.45" stop-color="#ffc76e" stop-opacity="0.32"/><stop offset="1" stop-color="#ffb45a" stop-opacity="0"/></radialGradient><radialGradient id="hy-sun" ><stop offset="0" stop-color="#fff8e6" stop-opacity="0.95"/><stop offset="0.25" stop-color="#ffe7b8" stop-opacity="0.55"/><stop offset="1" stop-color="#ffd7a0" stop-opacity="0"/></radialGradient><radialGradient id="hy-lamp" ><stop offset="0" stop-color="#fff1c8" stop-opacity="0.9"/><stop offset="0.5" stop-color="#ffd27a" stop-opacity="0.25"/><stop offset="1" stop-color="#ffd27a" stop-opacity="0"/></radialGradient><radialGradient id="hy-vignette" cx=".45" cy=".42" r=".75"><stop offset="0.55" stop-color="#1b2233" stop-opacity="0"/><stop offset="1" stop-color="#1b2233" stop-opacity="0.32"/></radialGradient><linearGradient id="hy-haze" x1="0" y1="0" x2="0" y2="1"><stop offset="0" stop-color="#ffffff" stop-opacity="0"/><stop offset="1" stop-color="#ffffff" stop-opacity="0.38"/></linearGradient><linearGradient id="hy-fade" x1="0" y1="0" x2="0" y2="1"><stop offset="0" stop-color="#1b2233" stop-opacity="0"/><stop offset="1" stop-color="#1b2233" stop-opacity="0.3"/></linearGradient><linearGradient id="hy-shine" x1="0" y1="0" x2="1" y2="1"><stop offset="0" stop-color="#ffffff" stop-opacity="0.55"/><stop offset="0.35" stop-color="#ffffff" stop-opacity="0"/><stop offset="0.6" stop-color="#ffffff" stop-opacity="0.12"/><stop offset="0.75" stop-color="#ffffff" stop-opacity="0"/></linearGradient><linearGradient id="hy-facelight" x1="0" y1="0" x2="1" y2="1"><stop offset="0" stop-color="#fff6e0" stop-opacity="0.2"/><stop offset="0.45" stop-color="#fff6e0" stop-opacity="0"/><stop offset="1" stop-color="#101a2a" stop-opacity="0.16"/></linearGradient><linearGradient id="hy-ground" x1="0" y1="0" x2="0" y2="1"><stop offset="0" stop-color="#000000" stop-opacity="0"/><stop offset="1" stop-color="#000000" stop-opacity="0.22"/></linearGradient><linearGradient id="hy-water" x1="0" y1="0" x2="0" y2="1"><stop offset="0" stop-color="#9fbcc4"/><stop offset="0.5" stop-color="#6f8f9b"/><stop offset="1" stop-color="#41606e"/></linearGradient><linearGradient id="hy-icon-hl" x1="0" y1="0" x2=".6" y2="1"><stop offset="0" stop-color="#ffffff" stop-opacity="0.7"/><stop offset="0.55" stop-color="#ffffff" stop-opacity="0"/></linearGradient><linearGradient id="hy-chart" x1="0" y1="0" x2="0" y2="1"><stop offset="0" stop-color="#2f7a68" stop-opacity="0.26"/><stop offset="1" stop-color="#2f7a68" stop-opacity="0"/></linearGradient><linearGradient id="hy-chart-up" x1="0" y1="0" x2="0" y2="1"><stop offset="0" stop-color="#a5483a" stop-opacity="0.2"/><stop offset="1" stop-color="#a5483a" stop-opacity="0"/></linearGradient><linearGradient id="hy-steam" x1="0" y1="0" x2="0" y2="1"><stop offset="0" stop-color="#ffffff" stop-opacity="0"/><stop offset="0.5" stop-color="#ffffff" stop-opacity="0.55"/><stop offset="1" stop-color="#ffffff" stop-opacity="0"/></linearGradient><pattern id="hy-brick" width="16" height="8" patternUnits="userSpaceOnUse"><path d="M0 .5H16M0 4.5H16M5 .5V4.5M13 4.5V8.5" stroke="#3a2018" stroke-opacity=".22" stroke-width=".7"/><rect x="5.4" y=".9" width="7.2" height="3.2" fill="#000" fill-opacity=".05"/><rect x="0" y="4.9" width="4.6" height="3.2" fill="#fff" fill-opacity=".06"/></pattern><pattern id="hy-tile" width="6" height="6" patternUnits="userSpaceOnUse"><path d="M0 .3H6M.3 0V6" stroke="#2d3a3a" stroke-opacity=".12" stroke-width=".5"/></pattern><pattern id="hy-roof" width="10" height="6" patternUnits="userSpaceOnUse"><path d="M0 6Q5 .8 10 6" stroke="#2a1a14" stroke-opacity=".28" stroke-width=".8" fill="none"/><path d="M5 0V3" stroke="#fff" stroke-opacity=".12" stroke-width=".8"/></pattern><pattern id="hy-wood" width="36" height="7" patternUnits="userSpaceOnUse"><path d="M0 .4H36M22 .4V7" stroke="#3b2414" stroke-opacity=".25" stroke-width=".7"/><path d="M3 3.5Q9 2.6 15 3.6" stroke="#3b2414" stroke-opacity=".1" stroke-width=".5" fill="none"/></pattern><pattern id="hy-shutter" width="8" height="4" patternUnits="userSpaceOnUse"><path d="M0 .5H8" stroke="#1d2433" stroke-opacity=".28" stroke-width=".8"/><path d="M0 1.6H8" stroke="#fff" stroke-opacity=".14" stroke-width=".6"/></pattern><pattern id="hy-hatch" width="5" height="5" patternUnits="userSpaceOnUse"><path d="M-1 6L6 -1" stroke="#1d2433" stroke-opacity=".13" stroke-width=".6"/></pattern><pattern id="hy-dapple" width="14" height="12" patternUnits="userSpaceOnUse"><circle cx="3" cy="3" r="1.6" fill="#fff" fill-opacity=".16"/><circle cx="10" cy="8" r="1.2" fill="#fff" fill-opacity=".12"/><circle cx="8" cy="2" r="1" fill="#000" fill-opacity=".08"/><circle cx="2" cy="9" r="1.3" fill="#000" fill-opacity=".07"/></pattern><pattern id="hy-ripple" width="40" height="8" patternUnits="userSpaceOnUse"><path d="M2 3H14M22 6H36" stroke="#fff" stroke-opacity=".28" stroke-width=".8" stroke-linecap="round"/></pattern><pattern id="hy-grille" width="6" height="24" patternUnits="userSpaceOnUse"><path d="M3 0V24" stroke="#3c4547" stroke-opacity=".7" stroke-width=".9"/><path d="M0 12H6" stroke="#3c4547" stroke-opacity=".55" stroke-width=".7"/></pattern><pattern id="hy-corr" width="5" height="10" patternUnits="userSpaceOnUse"><path d="M1 0V10" stroke="#1d2433" stroke-opacity=".2" stroke-width="1"/><path d="M3 0V10" stroke="#fff" stroke-opacity=".16" stroke-width=".8"/></pattern><pattern id="hy-reed" width="3" height="6" patternUnits="userSpaceOnUse"><path d="M1.5 0V6" stroke="#5a3d1c" stroke-opacity=".3" stroke-width=".7"/></pattern><pattern id="hy-grass" width="9" height="6" patternUnits="userSpaceOnUse"><path d="M1 6L2 2M4 6L5 1M7 6L6.5 3" stroke="#1f3a22" stroke-opacity=".2" stroke-width=".6"/></pattern><pattern id="hy-paper" width="14" height="14" patternUnits="userSpaceOnUse"><path d="M0 13.5H14" stroke="#7a6a50" stroke-opacity=".12" stroke-width=".6"/></pattern></defs><rect x="0" y="0" width="480" height="300" fill="url(#hy-sky-day)"/><circle cx="70" cy="60" r="84" fill="url(#hy-sun)" opacity="1"/><circle cx="70" cy="60" r="20" fill="#fffbe8"/><ellipse cx="59.2" cy="93.5" rx="34" ry="5.4" fill="#e7efec" opacity="0.55"/><ellipse cx="67.7" cy="95.9" rx="23.8" ry="2.7" fill="#f7ebd1" opacity="0.5"/><ellipse cx="176.7" cy="93.8" rx="31" ry="5" fill="#e7efec" opacity="0.55"/><ellipse cx="184.5" cy="96" rx="21.7" ry="2.5" fill="#f7ebd1" opacity="0.5"/><ellipse cx="308.4" cy="62.1" rx="32.1" ry="5.1" fill="#e7efec" opacity="0.55"/><ellipse cx="316.4" cy="64.3" rx="22.5" ry="2.6" fill="#f7ebd1" opacity="0.5"/><ellipse cx="431" cy="48.2" rx="33.7" ry="5.4" fill="#e7efec" opacity="0.55"/><ellipse cx="439.4" cy="50.6" rx="23.6" ry="2.7" fill="#f7ebd1" opacity="0.5"/><rect x="-10" y="83.2" width="71.4" height="108.8" fill="#d7ddd0"/><rect x="41.4" y="83.2" width="20" height="108.8" fill="#c7d0c4" opacity="0.55"/><path d="M11.4 83.2L11.4 69.8" stroke="#c7d0c4" stroke-width="1.2" fill="none" stroke-linecap="round"/><rect x="61.6" y="136.7" width="75.7" height="55.3" fill="#d7ddd0"/><rect x="116.1" y="136.7" width="21.2" height="55.3" fill="#c7d0c4" opacity="0.55"/><path d="M84.3 136.7L84.3 113.2" stroke="#c7d0c4" stroke-width="1.2" fill="none" stroke-linecap="round"/><rect x="139.5" y="110" width="60.2" height="82" fill="#d7ddd0"/><rect x="182.9" y="110" width="16.9" height="82" fill="#c7d0c4" opacity="0.55"/><rect x="203" y="145.7" width="69.3" height="46.3" fill="#d7ddd0"/><rect x="252.9" y="145.7" width="19.4" height="46.3" fill="#c7d0c4" opacity="0.55"/><rect x="277.6" y="146.3" width="79.2" height="45.7" fill="#d7ddd0"/><rect x="334.6" y="146.3" width="22.2" height="45.7" fill="#c7d0c4" opacity="0.55"/><rect x="362.3" y="104.9" width="43.8" height="87.1" fill="#d7ddd0"/><rect x="393.8" y="104.9" width="12.3" height="87.1" fill="#c7d0c4" opacity="0.55"/><rect x="408.3" y="124.8" width="72" height="67.2" fill="#d7ddd0"/><rect x="460.1" y="124.8" width="20.2" height="67.2" fill="#c7d0c4" opacity="0.55"/><rect x="0" y="135" width="480" height="57" fill="url(#hy-haze)" opacity="0.9"/><path d="M490 266L537 266L490 266Z" fill="#7d9690" opacity="0.28"/><rect x="380" y="70" width="110" height="196" fill="#bac1be"/><rect x="380" y="70" width="110" height="196" fill="url(#hy-tile)"/><rect x="380" y="70" width="110" height="196" fill="url(#hy-facelight)"/><rect x="378" y="69" width="114" height="4" fill="#d4d3cb"/><rect x="378" y="73" width="114" height="1.6" fill="#97a8a6" opacity="0.7"/><rect x="390.4" y="88.4" width="21.2" height="25.2" fill="#e0dbcb"/><rect x="392" y="90" width="18" height="22" fill="url(#hy-glass-day)"/><path d="M401 90V112M392 97H410" stroke="#e0dbcb" stroke-width="1.2" fill="none" stroke-linecap="round" stroke-linejoin="round"/><rect x="389" y="113.6" width="24" height="2.6" fill="#e9e2d0"/><rect x="422.4" y="88.4" width="21.2" height="25.2" fill="#e0dbcb"/><rect x="424" y="90" width="18" height="22" fill="url(#hy-glass-day)"/><path d="M433 90V112M424 97H442" stroke="#e0dbcb" stroke-width="1.2" fill="none" stroke-linecap="round" stroke-linejoin="round"/><rect x="421" y="113.6" width="24" height="2.6" fill="#e9e2d0"/><rect x="454.4" y="88.4" width="21.2" height="25.2" fill="#e0dbcb"/><rect x="456" y="90" width="18" height="22" fill="url(#hy-glass-day)"/><path d="M465 90V112M456 97H474" stroke="#e0dbcb" stroke-width="1.2" fill="none" stroke-linecap="round" stroke-linejoin="round"/><rect x="453" y="113.6" width="24" height="2.6" fill="#e9e2d0"/><rect x="390.4" y="124.4" width="21.2" height="25.2" fill="#e0dbcb"/><rect x="392" y="126" width="18" height="22" fill="url(#hy-glass-day)"/><path d="M401 126V148M392 133H410" stroke="#e0dbcb" stroke-width="1.2" fill="none" stroke-linecap="round" stroke-linejoin="round"/><rect x="389" y="149.6" width="24" height="2.6" fill="#e9e2d0"/><rect x="422.4" y="124.4" width="21.2" height="25.2" fill="#e0dbcb"/><rect x="424" y="126" width="18" height="22" fill="url(#hy-glass-day)"/><path d="M433 126V148M424 133H442" stroke="#e0dbcb" stroke-width="1.2" fill="none" stroke-linecap="round" stroke-linejoin="round"/><rect x="421" y="149.6" width="24" height="2.6" fill="#e9e2d0"/><rect x="454.4" y="124.4" width="21.2" height="25.2" fill="#e0dbcb"/><rect x="456" y="126" width="18" height="22" fill="url(#hy-glass-day)"/><path d="M465 126V148M456 133H474" stroke="#e0dbcb" stroke-width="1.2" fill="none" stroke-linecap="round" stroke-linejoin="round"/><rect x="453" y="149.6" width="24" height="2.6" fill="#e9e2d0"/><rect x="390.4" y="160.4" width="21.2" height="25.2" fill="#e0dbcb"/><rect x="392" y="162" width="18" height="22" fill="url(#hy-glass-day)"/><path d="M401 162V184M392 169H410" stroke="#e0dbcb" stroke-width="1.2" fill="none" stroke-linecap="round" stroke-linejoin="round"/><rect x="389" y="185.6" width="24" height="2.6" fill="#e9e2d0"/><rect x="422.4" y="160.4" width="21.2" height="25.2" fill="#e0dbcb"/><rect x="424" y="162" width="18" height="22" fill="url(#hy-glass-day)"/><path d="M433 162V184M424 169H442" stroke="#e0dbcb" stroke-width="1.2" fill="none" stroke-linecap="round" stroke-linejoin="round"/><rect x="421" y="185.6" width="24" height="2.6" fill="#e9e2d0"/><rect x="454.4" y="160.4" width="21.2" height="25.2" fill="#e0dbcb"/><rect x="456" y="162" width="18" height="22" fill="url(#hy-glass-day)"/><path d="M465 162V184M456 169H474" stroke="#e0dbcb" stroke-width="1.2" fill="none" stroke-linecap="round" stroke-linejoin="round"/><rect x="453" y="185.6" width="24" height="2.6" fill="#e9e2d0"/><rect x="390.4" y="196.4" width="21.2" height="25.2" fill="#e0dbcb"/><rect x="392" y="198" width="18" height="22" fill="url(#hy-glass-day)"/><path d="M401 198V220M392 205H410" stroke="#e0dbcb" stroke-width="1.2" fill="none" stroke-linecap="round" stroke-linejoin="round"/><rect x="389" y="221.6" width="24" height="2.6" fill="#e9e2d0"/><rect x="422.4" y="196.4" width="21.2" height="25.2" fill="#e0dbcb"/><rect x="424" y="198" width="18" height="22" fill="url(#hy-glass-day)"/><path d="M433 198V220M424 205H442" stroke="#e0dbcb" stroke-width="1.2" fill="none" stroke-linecap="round" stroke-linejoin="round"/><rect x="421" y="221.6" width="24" height="2.6" fill="#e9e2d0"/><rect x="454.4" y="196.4" width="21.2" height="25.2" fill="#e0dbcb"/><rect x="456" y="198" width="18" height="22" fill="url(#hy-glass-day)"/><path d="M465 198V220M456 205H474" stroke="#e0dbcb" stroke-width="1.2" fill="none" stroke-linecap="round" stroke-linejoin="round"/><rect x="453" y="221.6" width="24" height="2.6" fill="#e9e2d0"/><rect x="390.4" y="232.4" width="21.2" height="25.2" fill="#e0dbcb"/><rect x="392" y="234" width="18" height="22" fill="url(#hy-glass-day)"/><path d="M401 234V256M392 241H410" stroke="#e0dbcb" stroke-width="1.2" fill="none" stroke-linecap="round" stroke-linejoin="round"/><rect x="389" y="257.6" width="24" height="2.6" fill="#e9e2d0"/><rect x="422.4" y="232.4" width="21.2" height="25.2" fill="#e0dbcb"/><rect x="424" y="234" width="18" height="22" fill="url(#hy-glass-day)"/><path d="M433 234V256M424 241H442" stroke="#e0dbcb" stroke-width="1.2" fill="none" stroke-linecap="round" stroke-linejoin="round"/><rect x="421" y="257.6" width="24" height="2.6" fill="#e9e2d0"/><rect x="454.4" y="232.4" width="21.2" height="25.2" fill="#e0dbcb"/><rect x="456" y="234" width="18" height="22" fill="url(#hy-glass-day)"/><path d="M465 234V256M456 241H474" stroke="#e0dbcb" stroke-width="1.2" fill="none" stroke-linecap="round" stroke-linejoin="round"/><rect x="453" y="257.6" width="24" height="2.6" fill="#e9e2d0"/><path d="M370 268L438.7 268L384 260.3Z" fill="#7d9690" opacity="0.28"/><path d="M370 40L384 32.3V260.3L370 268Z" fill="#abb3a7"/><path d="M70 40L84 32.3H384L370 40Z" fill="#ede1cc"/><rect x="70" y="40" width="300" height="228" fill="#dcd3c0"/><rect x="70" y="40" width="300" height="228" fill="url(#hy-tile)"/><rect x="70" y="40" width="300" height="228" fill="url(#hy-facelight)"/><rect x="68" y="39" width="304" height="4" fill="#ede1cc"/><rect x="68" y="43" width="304" height="1.6" fill="#abb3a7" opacity="0.7"/><rect x="190" y="26" width="46" height="242" fill="#c4826b"/><rect x="190" y="26" width="46" height="242" fill="url(#hy-facelight)"/><rect x="226" y="26" width="10" height="242" fill="#9d8475"/><rect x="188" y="22" width="50" height="6" fill="#dba58c"/><rect x="202.4" y="42.4" width="19.2" height="23.2" fill="#dba58c"/><rect x="204" y="44" width="16" height="20" fill="url(#hy-glass-day)"/><rect x="201" y="65.6" width="22" height="2.6" fill="#e6bfa7"/><rect x="202.4" y="78.4" width="19.2" height="23.2" fill="#dba58c"/><rect x="204" y="80" width="16" height="20" fill="url(#hy-glass-day)"/><rect x="201" y="101.6" width="22" height="2.6" fill="#e6bfa7"/><rect x="202.4" y="114.4" width="19.2" height="23.2" fill="#dba58c"/><rect x="204" y="116" width="16" height="20" fill="url(#hy-glass-day)"/><rect x="201" y="137.6" width="22" height="2.6" fill="#e6bfa7"/><rect x="202.4" y="150.4" width="19.2" height="23.2" fill="#dba58c"/><rect x="204" y="152" width="16" height="20" fill="url(#hy-glass-day)"/><rect x="201" y="173.6" width="22" height="2.6" fill="#e6bfa7"/><rect x="202.4" y="186.4" width="19.2" height="23.2" fill="#dba58c"/><rect x="204" y="188" width="16" height="20" fill="url(#hy-glass-day)"/><rect x="201" y="209.6" width="22" height="2.6" fill="#e6bfa7"/><rect x="202.4" y="222.4" width="19.2" height="23.2" fill="#dba58c"/><rect x="204" y="224" width="16" height="20" fill="url(#hy-glass-day)"/><rect x="201" y="245.6" width="22" height="2.6" fill="#e6bfa7"/><rect x="78" y="66" width="110" height="8" fill="#f3e9d8"/><rect x="78" y="74" width="110" height="2" fill="#7d9690" opacity="0.5"/><rect x="80.4" y="42.4" width="103.2" height="25.2" fill="#e0dbcb"/><rect x="82" y="44" width="100" height="22" fill="url(#hy-glass-day)"/><rect x="82" y="44" width="100" height="22" fill="url(#hy-shine)"/><path d="M132 44V66" stroke="#e0dbcb" stroke-width="1.2" fill="none" stroke-linecap="round" stroke-linejoin="round"/><path d="M82 44h100v2h-98.4v20h-1.6z" fill="#7d9690" opacity="0.4"/><rect x="79" y="67.6" width="106" height="2.6" fill="#e9e2d0"/><path d="M88 47L176 47" stroke="#5c6264" stroke-width="0.9" fill="none" stroke-linecap="round"/><path d="M94 47h11v6l-2 12h-3l-1-8-1 8h-3l-1-12z" fill="#7ea3b8"/><path d="M109 47h12l3 4-3 1v11h-12v-11l-3-1z" fill="#d97a5f"/><rect x="115" y="47" width="1" height="16" fill="#000" opacity="0.08"/><path d="M128.4 47h11v6l-2 12h-3l-1-8-1 8h-3l-1-12z" fill="#b48aa8"/><path d="M146.8 47h12l3 4-3 1v11h-12v-11l-3-1z" fill="#d97a5f"/><rect x="152.8" y="47" width="1" height="16" fill="#000" opacity="0.08"/><path d="M163.7 47h11v6l-2 12h-3l-1-8-1 8h-3l-1-12z" fill="#e6b85c"/><rect x="244" y="66" width="110" height="8" fill="#f3e9d8"/><rect x="244" y="74" width="110" height="2" fill="#7d9690" opacity="0.5"/><rect x="246.4" y="42.4" width="103.2" height="25.2" fill="#e0dbcb"/><rect x="248" y="44" width="100" height="22" fill="url(#hy-glass-day)"/><rect x="248" y="44" width="100" height="22" fill="url(#hy-shine)"/><path d="M298 44V66" stroke="#e0dbcb" stroke-width="1.2" fill="none" stroke-linecap="round" stroke-linejoin="round"/><path d="M248 44h100v2h-98.4v20h-1.6z" fill="#7d9690" opacity="0.4"/><rect x="245" y="67.6" width="106" height="2.6" fill="#e9e2d0"/><rect x="78" y="102" width="110" height="8" fill="#f3e9d8"/><rect x="78" y="110" width="110" height="2" fill="#7d9690" opacity="0.5"/><rect x="80.4" y="78.4" width="103.2" height="25.2" fill="#e0dbcb"/><rect x="82" y="80" width="100" height="22" fill="url(#hy-glass-day)"/><rect x="82" y="80" width="100" height="22" fill="url(#hy-shine)"/><path d="M132 80V102" stroke="#e0dbcb" stroke-width="1.2" fill="none" stroke-linecap="round" stroke-linejoin="round"/><path d="M82 80h100v2h-98.4v20h-1.6z" fill="#7d9690" opacity="0.4"/><rect x="79" y="103.6" width="106" height="2.6" fill="#e9e2d0"/><path d="M88 83L176 83" stroke="#5c6264" stroke-width="0.9" fill="none" stroke-linecap="round"/><rect x="94" y="83" width="9" height="15" fill="#d97a5f"/><rect x="94" y="95" width="9" height="1.4" fill="#fff" opacity="0.4"/><rect x="112.3" y="83" width="9" height="15" fill="#d97a5f"/><rect x="112.3" y="95" width="9" height="1.4" fill="#fff" opacity="0.4"/><rect x="131.6" y="83" width="9" height="15" fill="#e6b85c"/><rect x="131.6" y="95" width="9" height="1.4" fill="#fff" opacity="0.4"/><path d="M146.1 83h11v6l-2 12h-3l-1-8-1 8h-3l-1-12z" fill="#f0e3c8"/><path d="M160.9 83h11v6l-2 12h-3l-1-8-1 8h-3l-1-12z" fill="#e6b85c"/><rect x="244" y="102" width="110" height="8" fill="#f3e9d8"/><rect x="244" y="110" width="110" height="2" fill="#7d9690" opacity="0.5"/><rect x="246.4" y="78.4" width="103.2" height="25.2" fill="#e0dbcb"/><rect x="248" y="80" width="100" height="22" fill="url(#hy-glass-day)"/><rect x="248" y="80" width="100" height="22" fill="url(#hy-shine)"/><path d="M298 80V102" stroke="#e0dbcb" stroke-width="1.2" fill="none" stroke-linecap="round" stroke-linejoin="round"/><path d="M248 80h100v2h-98.4v20h-1.6z" fill="#7d9690" opacity="0.4"/><rect x="245" y="103.6" width="106" height="2.6" fill="#e9e2d0"/><path d="M254 83L342 83" stroke="#5c6264" stroke-width="0.9" fill="none" stroke-linecap="round"/><path d="M260 83h11v6l-2 12h-3l-1-8-1 8h-3l-1-12z" fill="#b48aa8"/><rect x="277.4" y="83" width="9" height="15" fill="#6f8f6d"/><rect x="277.4" y="95" width="9" height="1.4" fill="#fff" opacity="0.4"/><rect x="292.7" y="83" width="9" height="15" fill="#e6b85c"/><rect x="292.7" y="95" width="9" height="1.4" fill="#fff" opacity="0.4"/><rect x="312.1" y="83" width="9" height="15" fill="#f0e3c8"/><rect x="312.1" y="95" width="9" height="1.4" fill="#fff" opacity="0.4"/><rect x="78" y="138" width="110" height="8" fill="#f3e9d8"/><rect x="78" y="146" width="110" height="2" fill="#7d9690" opacity="0.5"/><rect x="80.4" y="114.4" width="103.2" height="25.2" fill="#e0dbcb"/><rect x="82" y="116" width="100" height="22" fill="url(#hy-glass-day)"/><rect x="82" y="116" width="100" height="22" fill="url(#hy-shine)"/><path d="M132 116V138" stroke="#e0dbcb" stroke-width="1.2" fill="none" stroke-linecap="round" stroke-linejoin="round"/><path d="M82 116h100v2h-98.4v20h-1.6z" fill="#7d9690" opacity="0.4"/><rect x="79" y="139.6" width="106" height="2.6" fill="#e9e2d0"/><rect x="244" y="138" width="110" height="8" fill="#f3e9d8"/><rect x="244" y="146" width="110" height="2" fill="#7d9690" opacity="0.5"/><rect x="246.4" y="114.4" width="103.2" height="25.2" fill="#e0dbcb"/><rect x="248" y="116" width="100" height="22" fill="url(#hy-glass-day)"/><rect x="248" y="116" width="100" height="22" fill="url(#hy-shine)"/><path d="M298 116V138" stroke="#e0dbcb" stroke-width="1.2" fill="none" stroke-linecap="round" stroke-linejoin="round"/><path d="M248 116h100v2h-98.4v20h-1.6z" fill="#7d9690" opacity="0.4"/><rect x="245" y="139.6" width="106" height="2.6" fill="#e9e2d0"/><rect x="78" y="174" width="110" height="8" fill="#f3e9d8"/><rect x="78" y="182" width="110" height="2" fill="#7d9690" opacity="0.5"/><rect x="80.4" y="150.4" width="103.2" height="25.2" fill="#e0dbcb"/><rect x="82" y="152" width="100" height="22" fill="url(#hy-glass-day)"/><rect x="82" y="152" width="100" height="22" fill="url(#hy-shine)"/><path d="M132 152V174" stroke="#e0dbcb" stroke-width="1.2" fill="none" stroke-linecap="round" stroke-linejoin="round"/><path d="M82 152h100v2h-98.4v20h-1.6z" fill="#7d9690" opacity="0.4"/><rect x="79" y="175.6" width="106" height="2.6" fill="#e9e2d0"/><rect x="244" y="174" width="110" height="8" fill="#f3e9d8"/><rect x="244" y="182" width="110" height="2" fill="#7d9690" opacity="0.5"/><rect x="246.4" y="150.4" width="103.2" height="25.2" fill="#e0dbcb"/><rect x="248" y="152" width="100" height="22" fill="#5a6d6f"/><rect x="263" y="167.4" width="70" height="1.1" fill="#455555"/><path d="M268 167.4L268 171.8" stroke="#455555" stroke-width="1.2" fill="none" stroke-linecap="round"/><path d="M328 167.4L328 171.8" stroke="#455555" stroke-width="1.2" fill="none" stroke-linecap="round"/><path d="M283 152L283 160.8" stroke="#455555" stroke-width="0.8" fill="none" stroke-linecap="round"/><path d="M277 162.6Q283 159.5 289 162.6Z" fill="#455555"/><path d="M313 152L313 160.8" stroke="#455555" stroke-width="0.8" fill="none" stroke-linecap="round"/><path d="M307 162.6Q313 159.5 319 162.6Z" fill="#455555"/><circle cx="278" cy="170" r="10" fill="none" stroke="#455555" stroke-width="1.2"/><circle cx="308" cy="170" r="10" fill="none" stroke="#455555" stroke-width="1.2"/><path d="M278 170L290 167H303L308 170M290 167L293 170H278" stroke="#455555" stroke-width="1.2" fill="none" stroke-linecap="round" stroke-linejoin="round"/><rect x="329" y="169.6" width="10" height="2.6" fill="#b5654b"/><ellipse cx="329" cy="168.3" rx="7" ry="1.1" fill="#5f8f5c" transform="rotate(-30 334 169.6)"/><ellipse cx="339" cy="167.6" rx="7" ry="1.1" fill="#4f7f52" transform="rotate(30 334 169.6)"/><rect x="248" y="152" width="100" height="22" fill="url(#hy-glass-day)" opacity="0.55"/><rect x="248" y="152" width="100" height="22" fill="url(#hy-shine)"/><path d="M298 152V174" stroke="#e0dbcb" stroke-width="1.2" fill="none" stroke-linecap="round" stroke-linejoin="round"/><path d="M248 152h100v2h-98.4v20h-1.6z" fill="#7d9690" opacity="0.4"/><rect x="245" y="175.6" width="106" height="2.6" fill="#e9e2d0"/><rect x="242" y="148" width="114" height="38" fill="none" stroke="#e6b35a" stroke-width="1.6" opacity="0.9"/><rect x="78" y="210" width="110" height="8" fill="#f3e9d8"/><rect x="78" y="218" width="110" height="2" fill="#7d9690" opacity="0.5"/><rect x="80.4" y="186.4" width="103.2" height="25.2" fill="#e0dbcb"/><rect x="82" y="188" width="100" height="22" fill="url(#hy-glass-day)"/><rect x="82" y="188" width="100" height="22" fill="url(#hy-shine)"/><path d="M132 188V210" stroke="#e0dbcb" stroke-width="1.2" fill="none" stroke-linecap="round" stroke-linejoin="round"/><path d="M82 188h100v2h-98.4v20h-1.6z" fill="#7d9690" opacity="0.4"/><rect x="79" y="211.6" width="106" height="2.6" fill="#e9e2d0"/><path d="M88 191L176 191" stroke="#5c6264" stroke-width="0.9" fill="none" stroke-linecap="round"/><path d="M94 191h11v6l-2 12h-3l-1-8-1 8h-3l-1-12z" fill="#7ea3b8"/><path d="M108.7 191h11v6l-2 12h-3l-1-8-1 8h-3l-1-12z" fill="#d97a5f"/><path d="M124 191h11v6l-2 12h-3l-1-8-1 8h-3l-1-12z" fill="#b48aa8"/><rect x="143.5" y="191" width="9" height="15" fill="#f0e3c8"/><rect x="143.5" y="203" width="9" height="1.4" fill="#fff" opacity="0.4"/><path d="M159.4 191h11v6l-2 12h-3l-1-8-1 8h-3l-1-12z" fill="#7ea3b8"/><rect x="244" y="210" width="110" height="8" fill="#f3e9d8"/><rect x="244" y="218" width="110" height="2" fill="#7d9690" opacity="0.5"/><rect x="246.4" y="186.4" width="103.2" height="25.2" fill="#e0dbcb"/><rect x="248" y="188" width="100" height="22" fill="url(#hy-glass-day)"/><rect x="248" y="188" width="100" height="22" fill="url(#hy-shine)"/><path d="M298 188V210" stroke="#e0dbcb" stroke-width="1.2" fill="none" stroke-linecap="round" stroke-linejoin="round"/><path d="M248 188h100v2h-98.4v20h-1.6z" fill="#7d9690" opacity="0.4"/><rect x="245" y="211.6" width="106" height="2.6" fill="#e9e2d0"/><rect x="78" y="246" width="110" height="8" fill="#f3e9d8"/><rect x="78" y="254" width="110" height="2" fill="#7d9690" opacity="0.5"/><rect x="80.4" y="222.4" width="103.2" height="25.2" fill="#e0dbcb"/><rect x="82" y="224" width="100" height="22" fill="url(#hy-glass-day)"/><rect x="82" y="224" width="100" height="22" fill="url(#hy-shine)"/><path d="M132 224V246" stroke="#e0dbcb" stroke-width="1.2" fill="none" stroke-linecap="round" stroke-linejoin="round"/><path d="M82 224h100v2h-98.4v20h-1.6z" fill="#7d9690" opacity="0.4"/><rect x="79" y="247.6" width="106" height="2.6" fill="#e9e2d0"/><rect x="244" y="246" width="110" height="8" fill="#f3e9d8"/><rect x="244" y="254" width="110" height="2" fill="#7d9690" opacity="0.5"/><rect x="246.4" y="222.4" width="103.2" height="25.2" fill="#e0dbcb"/><rect x="248" y="224" width="100" height="22" fill="url(#hy-glass-day)"/><rect x="248" y="224" width="100" height="22" fill="url(#hy-shine)"/><path d="M298 224V246" stroke="#e0dbcb" stroke-width="1.2" fill="none" stroke-linecap="round" stroke-linejoin="round"/><path d="M248 224h100v2h-98.4v20h-1.6z" fill="#7d9690" opacity="0.4"/><rect x="245" y="247.6" width="106" height="2.6" fill="#e9e2d0"/><rect x="176" y="238" width="74" height="30" fill="#465053"/><rect x="182" y="242" width="62" height="26" fill="#becdc5"/><rect x="170" y="232" width="86" height="6" fill="#ede1cc"/><rect x="0" y="268" width="480" height="32" fill="#c7c1b1"/><rect x="0" y="268" width="480" height="32" fill="url(#hy-tile)"/><rect x="0" y="268" width="480" height="32" fill="url(#hy-ground)"/><path d="M0 268h480v6h-480z" fill="#9bac8d"/><rect x="286" y="248" width="84" height="20" fill="#627073"/><path d="M282 248h92l-6 -8h-80z" fill="#6f9a8f"/><ellipse cx="308.8" cy="269" rx="13.2" ry="1.3" fill="#7d9690" opacity="0.3"/><circle cx="300" cy="264.2" r="3.9" fill="none" stroke="#2a3237" stroke-width="1.3"/><circle cx="316.5" cy="264.2" r="3.9" fill="none" stroke="#2a3237" stroke-width="1.3"/><path d="M300 264.2L305 259.2H311L313.2 253.7H316L316.5 264.2H312.1L309.4 262H304.4Z" fill="#cd8968"/><rect x="303.3" y="257" width="6.1" height="1.9" fill="#2a3237" rx="1.5"/><rect x="313.8" y="250.4" width="4.4" height="3.3" fill="none" stroke="#2a3237" stroke-width="0.7"/><path d="M303.3 257a2.8 2.8 0 0 1 5.5 0z" fill="#e2a24a"/><ellipse cx="338.8" cy="269" rx="13.2" ry="1.3" fill="#7d9690" opacity="0.3"/><circle cx="330" cy="264.2" r="3.9" fill="none" stroke="#2a3237" stroke-width="1.3"/><circle cx="346.5" cy="264.2" r="3.9" fill="none" stroke="#2a3237" stroke-width="1.3"/><path d="M330 264.2L335 259.2H341L343.2 253.7H346L346.5 264.2H342.1L339.4 262H334.4Z" fill="#6f8da5"/><rect x="333.3" y="257" width="6.1" height="1.9" fill="#2a3237" rx="1.5"/><rect x="343.8" y="250.4" width="4.4" height="3.3" fill="none" stroke="#2a3237" stroke-width="0.7"/><path d="M333.3 257a2.8 2.8 0 0 1 5.5 0z" fill="#e2a24a"/><ellipse cx="52.2" cy="271" rx="32.4" ry="4.5" fill="#7d9690" opacity="0.28"/><path d="M31.5 270C32.4 243 33.3 223.2 35.1 205.2H38.7C39.6 225 40.5 244.8 42.3 270Z" fill="#928777"/><ellipse cx="34.6" cy="252" rx="2" ry="4.5" fill="#e3d7be" opacity="0.75"/><ellipse cx="38.2" cy="235.8" rx="1.6" ry="3.6" fill="#e3d7be" opacity="0.6"/><ellipse cx="35.6" cy="220.5" rx="1.4" ry="2.7" fill="#e3d7be" opacity="0.5"/><path d="M36 228.6q-12.6 -9 -23.4 -27M36.9 219.6q14.4 -7.2 23.4 -27M36.9 208.8l0.9 -27" stroke="#928777" stroke-width="2.8800000000000003" fill="none" stroke-linecap="round" stroke-linejoin="round"/><circle cx="16.2" cy="200.7" r="18" fill="#47705a"/><circle cx="39.6" cy="184.5" r="21.6" fill="#47705a"/><circle cx="62.1" cy="195.3" r="18.9" fill="#47705a"/><circle cx="30.6" cy="211.5" r="15.3" fill="#47705a"/><circle cx="52.2" cy="211.5" r="15.3" fill="#47705a"/><circle cx="37.8" cy="198.9" r="18" fill="#47705a"/><circle cx="12.6" cy="196.2" r="16.2" fill="#6f9a6a"/><circle cx="36" cy="180" r="19.4" fill="#6f9a6a"/><circle cx="58.5" cy="190.8" r="17" fill="#6f9a6a"/><circle cx="27" cy="207" r="13.8" fill="#6f9a6a"/><circle cx="48.6" cy="207" r="13.8" fill="#6f9a6a"/><circle cx="34.2" cy="194.4" r="16.2" fill="#6f9a6a"/><circle cx="8.1" cy="190.8" r="9.9" fill="#9cbf84" opacity="0.9"/><circle cx="31.5" cy="174.6" r="11.9" fill="#9cbf84" opacity="0.9"/><circle cx="54" cy="185.4" r="10.4" fill="#9cbf84" opacity="0.9"/><circle cx="22.5" cy="201.6" r="8.4" fill="#9cbf84" opacity="0.9"/><circle cx="44.1" cy="201.6" r="8.4" fill="#9cbf84" opacity="0.9"/><circle cx="29.7" cy="189" r="9.9" fill="#9cbf84" opacity="0.9"/><circle cx="34.2" cy="192.6" r="30.6" fill="url(#hy-dapple)"/><ellipse cx="461.5" cy="273" rx="27" ry="3.8" fill="#7d9690" opacity="0.28"/><path d="M444.3 272C445 249.5 445.8 233 447.3 218H450.3C451 234.5 451.8 251 453.3 272Z" fill="#928777"/><ellipse cx="446.8" cy="257" rx="1.7" ry="3.8" fill="#e3d7be" opacity="0.75"/><ellipse cx="449.8" cy="243.5" rx="1.4" ry="3" fill="#e3d7be" opacity="0.6"/><ellipse cx="447.6" cy="230.8" rx="1.1" ry="2.3" fill="#e3d7be" opacity="0.5"/><path d="M448 237.5q-10.5 -7.5 -19.5 -22.5M448.8 230q12 -6 19.5 -22.5M448.8 221l0.8 -22.5" stroke="#928777" stroke-width="2.4000000000000004" fill="none" stroke-linecap="round" stroke-linejoin="round"/><circle cx="440.5" cy="217.3" r="12.8" fill="#47705a"/><circle cx="460" cy="212.8" r="13.5" fill="#47705a"/><circle cx="451" cy="203.8" r="12" fill="#47705a"/><circle cx="437.5" cy="213.5" r="11.5" fill="#6f9a6a"/><circle cx="457" cy="209" r="12.1" fill="#6f9a6a"/><circle cx="448" cy="200" r="10.8" fill="#6f9a6a"/><circle cx="433.8" cy="209" r="7" fill="#9cbf84" opacity="0.9"/><circle cx="453.3" cy="204.5" r="7.4" fill="#9cbf84" opacity="0.9"/><circle cx="444.3" cy="195.5" r="6.6" fill="#9cbf84" opacity="0.9"/><circle cx="446.5" cy="207.5" r="25.5" fill="url(#hy-dapple)"/><ellipse cx="153.2" cy="270" rx="14.4" ry="3.2" fill="#7d9690" opacity="0.25"/><circle cx="152.4" cy="264.4" r="8.8" fill="#47705a"/><circle cx="145.2" cy="263.6" r="7.2" fill="#6f9a6a"/><circle cx="154.8" cy="262" r="7.2" fill="#6f9a6a"/><circle cx="147.6" cy="259.6" r="4.8" fill="#9cbf84" opacity="0.9"/><ellipse cx="135.1" cy="289" rx="7.7" ry="1.5" fill="#7d9690" opacity="0.3"/><path d="M128.3 276.1l-3.4 11.9M131.7 276.1l3.4 11.9" stroke="#38494a" stroke-width="2.21" fill="none" stroke-linecap="round" stroke-linejoin="round"/><path d="M125.3 263.4Q130 260.8 134.7 263.4L135.5 277.8H124.5Z" fill="#476a74"/><path d="M125.3 263.4L124.5 277.8H126.6L127.5 262.8Z" fill="#fbefd9" opacity="0.35"/><circle cx="130" cy="258.3" r="3.7" fill="#393539"/><rect x="0" y="0" width="480" height="300" fill="url(#hy-vignette)" opacity="0.35"/></svg>
