<svg xmlns="http://www.w3.org/2000/svg" viewBox="0 0 480 300" class="art-scene art-scratch" aria-hidden="true" focusable="false"><defs><linearGradient id="hy-sky-dusk" x1="0" y1="0" x2="0" y2="1"><stop offset="0" stop-color="#2c3a5c"/><stop offset="0.58" stop-color="#7b6380"/><stop offset="1" stop-color="#e9a77a"/></linearGradient><linearGradient id="hy-sky-morning" x1="0" y1="0" x2="0" y2="1"><stop offset="0" stop-color="#b9d3df"/><stop offset="0.58" stop-color="#d9e1d8"/><stop offset="1" stop-color="#f6e7cf"/></linearGradient><linearGradient id="hy-sky-day" x1="0" y1="0" x2="0" y2="1"><stop offset="0" stop-color="#9cc3cf"/><stop offset="0.58" stop-color="#c9dbd5"/><stop offset="1" stop-color="#f3e3c4"/></linearGradient><linearGradient id="hy-sky-evening" x1="0" y1="0" x2="0" y2="1"><stop offset="0" stop-color="#1f2a44"/><stop offset="0.58" stop-color="#4a4360"/><stop offset="1" stop-color="#c7785c"/></linearGradient><linearGradient id="hy-sky-golden" x1="0" y1="0" x2="0" y2="1"><stop offset="0" stop-color="#e89a5c"/><stop offset="0.58" stop-color="#f3bd7e"/><stop offset="1" stop-color="#fde3b0"/></linearGradient><linearGradient id="hy-sky-bluehour" x1="0" y1="0" x2="0" y2="1"><stop offset="0" stop-color="#33476b"/><stop offset="0.58" stop-color="#5f7393"/><stop offset="1" stop-color="#9fb2c6"/></linearGradient><linearGradient id="hy-glass-dusk" x1="0" y1="0" x2=".35" y2="1"><stop offset="0" stop-color="#2c3a5c"/><stop offset="0.7" stop-color="#e9a77a"/><stop offset="1" stop-color="#a98875"/></linearGradient><linearGradient id="hy-glass-morning" x1="0" y1="0" x2=".35" y2="1"><stop offset="0" stop-color="#b9d3df"/><stop offset="0.7" stop-color="#f6e7cf"/><stop offset="1" stop-color="#cdccbf"/></linearGradient><linearGradient id="hy-glass-day" x1="0" y1="0" x2=".35" y2="1"><stop offset="0" stop-color="#9cc3cf"/><stop offset="0.7" stop-color="#f3e3c4"/><stop offset="1" stop-color="#c4c4af"/></linearGradient><linearGradient id="hy-glass-evening" x1="0" y1="0" x2=".35" y2="1"><stop offset="0" stop-color="#1f2a44"/><stop offset="0.7" stop-color="#c7785c"/><stop offset="1" stop-color="#8a5f57"/></linearGradient><linearGradient id="hy-glass-golden" x1="0" y1="0" x2=".35" y2="1"><stop offset="0" stop-color="#e89a5c"/><stop offset="0.7" stop-color="#fde3b0"/><stop offset="1" stop-color="#cfb38e"/></linearGradient><linearGradient id="hy-glass-bluehour" x1="0" y1="0" x2=".35" y2="1"><stop offset="0" stop-color="#33476b"/><stop offset="0.7" stop-color="#9fb2c6"/><stop offset="1" stop-color="#77889c"/></linearGradient><radialGradient id="hy-glow" ><stop offset="0" stop-color="#ffe2a0" stop-opacity="0.85"/><stop offset="0.45" stop-color="#ffc76e" stop-opacity="0.32"/><stop offset="1" stop-color="#ffb45a" stop-opacity="0"/></radialGradient><radialGradient id="hy-sun" ><stop offset="0" stop-color="#fff8e6" stop-opacity="0.95"/><stop offset="0.25" stop-color="#ffe7b8" stop-opacity="0.55"/><stop offset="1" stop-color="#ffd7a0" stop-opacity="0"/></radialGradient><radialGradient id="hy-lamp" ><stop offset="0" stop-color="#fff1c8" stop-opacity="0.9"/><stop offset="0.5" stop-color="#ffd27a" stop-opacity="0.25"/><stop offset="1" stop-color="#ffd27a" stop-opacity="0"/></radialGradient><radialGradient id="hy-vignette" cx=".45" cy=".42" r=".75"><stop offset="0.55" stop-color="#1b2233" stop-opacity="0"/><stop offset="1" stop-color="#1b2233" stop-opacity="0.32"/></radialGradient><linearGradient id="hy-haze" x1="0" y1="0" x2="0" y2="1"><stop offset="0" stop-color="#ffffff" stop-opacity="0"/><stop offset="1" stop-color="#ffffff" stop-opacity="0.38"/></linearGradient><linearGradient id="hy-fade" x1="0" y1="0" x2="0" y2="1"><stop offset="0" stop-color="#1b2233" stop-opacity="0"/><stop offset="1" stop-color="#1b2233" stop-opacity="0.3"/></linearGradient><linearGradient id="hy-shine" x1="0" y1="0" x2="1" y2="1"><stop offset="0" stop-color="#ffffff" stop-opacity="0.55"/><stop offset="0.35" stop-color="#ffffff" stop-opacity="0"/><stop offset="0.6" stop-color="#ffffff" stop-opacity="0.12"/><stop offset="0.75" stop-color="#ffffff" stop-opacity="0"/></linearGradient><linearGradient id="hy-facelight" x1="0" y1="0" x2="1" y2="1"><stop offset="0" stop-color="#fff6e0" stop-opacity="0.2"/><stop offset="0.45" stop-color="#fff6e0" stop-opacity="0"/><stop offset="1" stop-color="#101a2a" stop-opacity="0.16"/></linearGradient><linearGradient id="hy-ground" x1="0" y1="0" x2="0" y2="1"><stop offset="0" stop-color="#000000" stop-opacity="0"/><stop offset="1" stop-color="#000000" stop-opacity="0.22"/></linearGradient><linearGradient id="hy-water" x1="0" y1="0" x2="0" y2="1"><stop offset="0" stop-color="#9fbcc4"/><stop offset="0.5" stop-color="#6f8f9b"/><stop offset="1" stop-color="#41606e"/></linearGradient><linearGradient id="hy-icon-hl" x1="0" y1="0" x2=".6" y2="1"><stop offset="0" stop-color="#ffffff" stop-opacity="0.7"/><stop offset="0.55" stop-color="#ffffff" stop-opacity="0"/></linearGradient><linearGradient id="hy-chart" x1="0" y1="0" x2="0" y2="1"><stop offset="0" stop-color="#2f7a68" stop-opacity="0.26"/><stop offset="1" stop-color="#2f7a68" stop-opacity="0"/></linearGradient><linearGradient id="hy-chart-up" x1="0" y1="0" x2="0" y2="1"><stop offset="0" stop-color="#a5483a" stop-opacity="0.2"/><stop offset="1" stop-color="#a5483a" stop-opacity="0"/></linearGradient><linearGradient id="hy-steam" x1="0" y1="0" x2="0" y2="1"><stop offset="0" stop-color="#ffffff" stop-opacity="0"/><stop offset="0.5" stop-color="#ffffff" stop-opacity="0.55"/><stop offset="1" stop-color="#ffffff" stop-opacity="0"/></linearGradient><pattern id="hy-brick" width="16" height="8" patternUnits="userSpaceOnUse"><path d="M0 .5H16M0 4.5H16M5 .5V4.5M13 4.5V8.5" stroke="#3a2018" stroke-opacity=".22" stroke-width=".7"/><rect x="5.4" y=".9" width="7.2" height="3.2" fill="#000" fill-opacity=".05"/><rect x="0" y="4.9" width="4.6" height="3.2" fill="#fff" fill-opacity=".06"/></pattern><pattern id="hy-tile" width="6" height="6" patternUnits="userSpaceOnUse"><path d="M0 .3H6M.3 0V6" stroke="#2d3a3a" stroke-opacity=".12" stroke-width=".5"/></pattern><pattern id="hy-roof" width="10" height="6" patternUnits="userSpaceOnUse"><path d="M0 6Q5 .8 10 6" stroke="#2a1a14" stroke-opacity=".28" stroke-width=".8" fill="none"/><path d="M5 0V3" stroke="#fff" stroke-opacity=".12" stroke-width=".8"/></pattern><pattern id="hy-wood" width="36" height="7" patternUnits="userSpaceOnUse"><path d="M0 .4H36M22 .4V7" stroke="#3b2414" stroke-opacity=".25" stroke-width=".7"/><path d="M3 3.5Q9 2.6 15 3.6" stroke="#3b2414" stroke-opacity=".1" stroke-width=".5" fill="none"/></pattern><pattern id="hy-shutter" width="8" height="4" patternUnits="userSpaceOnUse"><path d="M0 .5H8" stroke="#1d2433" stroke-opacity=".28" stroke-width=".8"/><path d="M0 1.6H8" stroke="#fff" stroke-opacity=".14" stroke-width=".6"/></pattern><pattern id="hy-hatch" width="5" height="5" patternUnits="userSpaceOnUse"><path d="M-1 6L6 -1" stroke="#1d2433" stroke-opacity=".13" stroke-width=".6"/></pattern><pattern id="hy-dapple" width="14" height="12" patternUnits="userSpaceOnUse"><circle cx="3" cy="3" r="1.6" fill="#fff" fill-opacity=".16"/><circle cx="10" cy="8" r="1.2" fill="#fff" fill-opacity=".12"/><circle cx="8" cy="2" r="1" fill="#000" fill-opacity=".08"/><circle cx="2" cy="9" r="1.3" fill="#000" fill-opacity=".07"/></pattern><pattern id="hy-ripple" width="40" height="8" patternUnits="userSpaceOnUse"><path d="M2 3H14M22 6H36" stroke="#fff" stroke-opacity=".28" stroke-width=".8" stroke-linecap="round"/></pattern><pattern id="hy-grille" width="6" height="24" patternUnits="userSpaceOnUse"><path d="M3 0V24" stroke="#3c4547" stroke-opacity=".7" stroke-width=".9"/><path d="M0 12H6" stroke="#3c4547" stroke-opacity=".55" stroke-width=".7"/></pattern><pattern id="hy-corr" width="5" height="10" patternUnits="userSpaceOnUse"><path d="M1 0V10" stroke="#1d2433" stroke-opacity=".2" stroke-width="1"/><path d="M3 0V10" stroke="#fff" stroke-opacity=".16" stroke-width=".8"/></pattern><pattern id="hy-reed" width="3" height="6" patternUnits="userSpaceOnUse"><path d="M1.5 0V6" stroke="#5a3d1c" stroke-opacity=".3" stroke-width=".7"/></pattern><pattern id="hy-grass" width="9" height="6" patternUnits="userSpaceOnUse"><path d="M1 6L2 2M4 6L5 1M7 6L6.5 3" stroke="#1f3a22" stroke-opacity=".2" stroke-width=".6"/></pattern><pattern id="hy-paper" width="14" height="14" patternUnits="userSpaceOnUse"><path d="M0 13.5H14" stroke="#7a6a50" stroke-opacity=".12" stroke-width=".6"/></pattern></defs><rect x="0" y="0" width="480" height="300" fill="url(#hy-sky-day)"/><circle cx="78" cy="42" r="67.2" fill="url(#hy-sun)" opacity="1"/><circle cx="78" cy="42" r="16" fill="#fffbe8"/><ellipse cx="76.1" cy="81.7" rx="32.8" ry="5.3" fill="#e7efec" opacity="0.55"/><ellipse cx="84.3" cy="84" rx="23" ry="2.6" fill="#f7ebd1" opacity="0.5"/><ellipse cx="177.2" cy="91.8" rx="37" ry="5.9" fill="#e7efec" opacity="0.55"/><ellipse cx="186.4" cy="94.4" rx="25.9" ry="3" fill="#f7ebd1" opacity="0.5"/><ellipse cx="304.6" cy="48" rx="37" ry="5.9" fill="#e7efec" opacity="0.55"/><ellipse cx="313.8" cy="50.6" rx="25.9" ry="3" fill="#f7ebd1" opacity="0.5"/><ellipse cx="411.6" cy="95.7" rx="41.7" ry="6.7" fill="#e7efec" opacity="0.55"/><ellipse cx="422" cy="98.6" rx="29.2" ry="3.3" fill="#f7ebd1" opacity="0.5"/><rect x="-10" y="86.3" width="56.5" height="65.7" fill="#d7ddd0"/><rect x="30.7" y="86.3" width="15.8" height="65.7" fill="#c7d0c4" opacity="0.55"/><path d="M7 86.3L7 73.4" stroke="#c7d0c4" stroke-width="1.2" fill="none" stroke-linecap="round"/><rect x="46.7" y="101.7" width="62.7" height="50.3" fill="#d7ddd0"/><rect x="91.9" y="101.7" width="17.6" height="50.3" fill="#c7d0c4" opacity="0.55"/><rect x="112.7" y="118.6" width="62.6" height="33.4" fill="#d7ddd0"/><rect x="157.7" y="118.6" width="17.5" height="33.4" fill="#c7d0c4" opacity="0.55"/><rect x="176.1" y="120.8" width="45.5" height="31.2" fill="#d7ddd0"/><rect x="208.9" y="120.8" width="12.7" height="31.2" fill="#c7d0c4" opacity="0.55"/><rect x="185.2" y="114.8" width="13.7" height="6" fill="#d7ddd0"/><rect x="227.2" y="92.6" width="64.7" height="59.4" fill="#d7ddd0"/><rect x="273.8" y="92.6" width="18.1" height="59.4" fill="#c7d0c4" opacity="0.55"/><rect x="293.3" y="121.6" width="62.7" height="30.4" fill="#d7ddd0"/><rect x="338.5" y="121.6" width="17.6" height="30.4" fill="#c7d0c4" opacity="0.55"/><rect x="359.7" y="115.9" width="65.2" height="36.1" fill="#d7ddd0"/><rect x="406.7" y="115.9" width="18.3" height="36.1" fill="#c7d0c4" opacity="0.55"/><rect x="426.6" y="98.6" width="34.7" height="53.4" fill="#d7ddd0"/><rect x="451.6" y="98.6" width="9.7" height="53.4" fill="#c7d0c4" opacity="0.55"/><rect x="462.2" y="119.5" width="32.1" height="32.5" fill="#d7ddd0"/><rect x="485.3" y="119.5" width="9" height="32.5" fill="#c7d0c4" opacity="0.55"/><rect x="0" y="118" width="480" height="34" fill="url(#hy-haze)" opacity="0.9"/><path d="M500 208L524 208L500 208Z" fill="#7d9690" opacity="0.28"/><rect x="392" y="108" width="108" height="100" fill="#d4cab4"/><rect x="392" y="108" width="108" height="100" fill="url(#hy-tile)"/><rect x="392" y="108" width="108" height="100" fill="url(#hy-facelight)"/><rect x="390" y="107" width="112" height="4" fill="#e7dac3"/><rect x="390" y="111" width="112" height="1.6" fill="#a6aea0" opacity="0.7"/><rect x="406.4" y="120.4" width="29.2" height="35.2" fill="#e0dbcb"/><rect x="408" y="122" width="26" height="32" fill="url(#hy-glass-day)"/><rect x="408" y="122" width="26" height="32" fill="url(#hy-shine)"/><path d="M421 122V154" stroke="#e0dbcb" stroke-width="1.2" fill="none" stroke-linecap="round" stroke-linejoin="round"/><path d="M408 122h26v2h-24.4v30h-1.6z" fill="#7d9690" opacity="0.4"/><rect x="405" y="155.6" width="32" height="2.6" fill="#e9e2d0"/><rect x="405" y="119" width="32" height="38" fill="url(#hy-grille)"/><rect x="405" y="119" width="32" height="38" fill="none" stroke="#3c4547" stroke-width="1.1" stroke-opacity="0.7"/><rect x="403" y="157" width="36" height="2.4" fill="#4a5254" opacity="0.8"/><rect x="446.4" y="120.4" width="29.2" height="35.2" fill="#e0dbcb"/><rect x="448" y="122" width="26" height="32" fill="url(#hy-glass-day)"/><rect x="448" y="122" width="26" height="32" fill="url(#hy-shine)"/><path d="M461 122V154" stroke="#e0dbcb" stroke-width="1.2" fill="none" stroke-linecap="round" stroke-linejoin="round"/><path d="M448 122h26v2h-24.4v30h-1.6z" fill="#7d9690" opacity="0.4"/><rect x="445" y="155.6" width="32" height="2.6" fill="#e9e2d0"/><ellipse cx="16.2" cy="205" rx="24.5" ry="3.4" fill="#7d9690" opacity="0.28"/><path d="M0.6 204C1.3 183.6 2 168.6 3.3 155H6C6.7 170 7.4 185 8.8 204Z" fill="#928777"/><ellipse cx="2.9" cy="190.4" rx="1.5" ry="3.4" fill="#e3d7be" opacity="0.75"/><ellipse cx="5.6" cy="178.2" rx="1.2" ry="2.7" fill="#e3d7be" opacity="0.6"/><ellipse cx="3.7" cy="166.6" rx="1" ry="2" fill="#e3d7be" opacity="0.5"/><path d="M4 172.7q-9.5 -6.8 -17.7 -20.4M4.7 165.9q10.9 -5.4 17.7 -20.4M4.7 157.8l0.7 -20.4" stroke="#928777" stroke-width="2.176" fill="none" stroke-linecap="round" stroke-linejoin="round"/><circle cx="-11" cy="151.6" r="13.6" fill="#47705a"/><circle cx="6.7" cy="139.4" r="16.3" fill="#47705a"/><circle cx="23.7" cy="147.6" r="14.3" fill="#47705a"/><circle cx="-0.1" cy="159.8" r="11.6" fill="#47705a"/><circle cx="16.2" cy="159.8" r="11.6" fill="#47705a"/><circle cx="5.4" cy="150.3" r="13.6" fill="#47705a"/><circle cx="-13.7" cy="148.2" r="12.2" fill="#6f9a6a"/><circle cx="4" cy="136" r="14.7" fill="#6f9a6a"/><circle cx="21" cy="144.2" r="12.9" fill="#6f9a6a"/><circle cx="-2.8" cy="156.4" r="10.4" fill="#6f9a6a"/><circle cx="13.5" cy="156.4" r="10.4" fill="#6f9a6a"/><circle cx="2.6" cy="146.9" r="12.2" fill="#6f9a6a"/><circle cx="-17.1" cy="144.2" r="7.5" fill="#9cbf84" opacity="0.9"/><circle cx="0.6" cy="131.9" r="9" fill="#9cbf84" opacity="0.9"/><circle cx="17.6" cy="140.1" r="7.9" fill="#9cbf84" opacity="0.9"/><circle cx="-6.2" cy="152.3" r="6.4" fill="#9cbf84" opacity="0.9"/><circle cx="10.1" cy="152.3" r="6.4" fill="#9cbf84" opacity="0.9"/><circle cx="-0.8" cy="142.8" r="7.5" fill="#9cbf84" opacity="0.9"/><circle cx="2.6" cy="145.5" r="23.1" fill="url(#hy-dapple)"/><rect x="0" y="196" width="480" height="104" fill="#cbc6b7"/><rect x="0" y="196" width="480" height="104" fill="url(#hy-tile)"/><rect x="0" y="286" width="480" height="14" fill="#51585c"/><rect x="0" y="286" width="480" height="3" fill="#d5d1c5"/><rect x="0" y="289" width="480" height="2" fill="#7d9690" opacity="0.5"/><path d="M0 293.7H480" stroke="#e8e0cc" stroke-width="2" fill="none" stroke-linecap="round" stroke-linejoin="round" stroke-dasharray="28 22" opacity="0.6"/><rect x="0" y="196" width="480" height="104" fill="url(#hy-ground)"/><rect x="62" y="56" width="8" height="150" fill="#383632"/><rect x="346" y="52" width="8" height="154" fill="#383632"/><rect x="58" y="52" width="16" height="6" fill="#cba786"/><rect x="342" y="48" width="16" height="6" fill="#cba786"/><path d="M56 62H370Q358 84 370 106H56Q70 84 56 62Z" fill="#ce725c"/><path d="M56 76H370Q364 88 370 98H56Q64 88 56 76Z" fill="#f5e4c1" opacity="0.92"/><path d="M300 62H370Q358 84 370 106H300Q312 84 300 62Z" fill="#ae8071" opacity="0.4"/><path d="M56 100H370L362 122Q200 144 64 122Z" fill="#ce725c"/><path d="M56 100H150L96 122Q70 112 64 122L56 100Z" fill="#f4d2c1" opacity="0.4"/><path d="M118 64Q126 92 112 124" stroke="#fff" stroke-width="2.2" fill="none" stroke-linecap="round" stroke-linejoin="round" opacity="0.28"/><path d="M210 68Q218 98 200 132" stroke="#6c3635" stroke-width="1.4" fill="none" stroke-linecap="round" stroke-linejoin="round" opacity="0.4"/><path d="M292 64Q300 94 282 124" stroke="#fff" stroke-width="2" fill="none" stroke-linecap="round" stroke-linejoin="round" opacity="0.22"/><path d="M78 120Q94 136 110 120" stroke="#703535" stroke-width="1.15" fill="none" stroke-linecap="round" stroke-linejoin="round"/><path d="M114 120Q130 136 146 120" stroke="#703535" stroke-width="1.15" fill="none" stroke-linecap="round" stroke-linejoin="round"/><path d="M150 120Q166 136 182 120" stroke="#703535" stroke-width="1.15" fill="none" stroke-linecap="round" stroke-linejoin="round"/><path d="M186 120Q202 136 218 120" stroke="#703535" stroke-width="1.15" fill="none" stroke-linecap="round" stroke-linejoin="round"/><path d="M222 120Q238 136 254 120" stroke="#703535" stroke-width="1.15" fill="none" stroke-linecap="round" stroke-linejoin="round"/><path d="M258 120Q274 136 290 120" stroke="#703535" stroke-width="1.15" fill="none" stroke-linecap="round" stroke-linejoin="round"/><path d="M294 120Q310 136 326 120" stroke="#703535" stroke-width="1.15" fill="none" stroke-linecap="round" stroke-linejoin="round"/><path d="M330 120Q346 136 362 120" stroke="#703535" stroke-width="1.15" fill="none" stroke-linecap="round" stroke-linejoin="round"/><text x="213" y="118" text-anchor="middle" dominant-baseline="middle" font-family="Microsoft YaHei,sans-serif" font-size="18" font-weight="700" fill="#f7efe2">幸运刮刮乐</text><ellipse cx="220" cy="228" rx="120" ry="10" fill="#7d9690" opacity="0.2"/><path d="M78 174H358L398 232H30Z" fill="#ae8562"/><path d="M78 174H358L398 232H30Z" fill="url(#hy-wood)" opacity="0.58"/><path d="M78 174H190L86 232H30Z" fill="#fff" opacity="0.12"/><path d="M30 232H398L384 260H48Z" fill="#908671"/><path d="M30 232H398L384 260H48Z" fill="url(#hy-wood)" opacity="0.32"/><rect x="78" y="252" width="10" height="34" fill="#544f42"/><rect x="352" y="250" width="10" height="36" fill="#544f42"/><ellipse cx="112" cy="210" rx="7" ry="3" fill="#c98a3a"/><ellipse cx="120" cy="206" rx="7" ry="3" fill="#e2b45a"/><ellipse cx="108" cy="204" rx="6" ry="2.5" fill="#d5d8dc"/><ellipse cx="116" cy="200" rx="6.5" ry="2.6" fill="#e8c56a"/><path d="M98 188H134L140 220H92Z" fill="#e0e9e6" opacity="0.5"/><path d="M98 188H134L140 220H92Z" fill="url(#hy-shine)" opacity="0.4"/><ellipse cx="116" cy="188" rx="18" ry="5" fill="#f3f3ec"/><ellipse cx="116" cy="220" rx="24" ry="6" fill="#afc2c4" opacity="0.75"/><ellipse cx="116" cy="186" rx="7" ry="2.4" fill="#e2b45a"/><ellipse cx="162" cy="222" rx="7" ry="3" fill="#e2b45a"/><ellipse cx="154" cy="228" rx="6" ry="2.5" fill="#d5d8dc"/><ellipse cx="214" cy="214" rx="40" ry="6" fill="#7d9690" opacity="0.18"/><rect x="174" y="196" width="64" height="36" fill="#f6f0e4" rx="2" transform="rotate(0 206 214)"/><rect x="183" y="206.8" width="46.1" height="14.4" fill="#d8dbdf" rx="1.5" transform="rotate(0 206 214)"/><rect x="185.5" y="209" width="14.1" height="4.3" fill="#fff" opacity="0.4" transform="rotate(0 206 214)"/><rect x="176" y="193" width="64" height="36" fill="#f6f0e4" rx="2" transform="rotate(0 208 211)"/><rect x="185" y="203.8" width="46.1" height="14.4" fill="#d8dbdf" rx="1.5" transform="rotate(0 208 211)"/><rect x="187.5" y="206" width="14.1" height="4.3" fill="#fff" opacity="0.4" transform="rotate(0 208 211)"/><rect x="178" y="190" width="64" height="36" fill="#f6f0e4" rx="2" transform="rotate(0 210 208)"/><rect x="187" y="200.8" width="46.1" height="14.4" fill="#d8dbdf" rx="1.5" transform="rotate(0 210 208)"/><rect x="189.5" y="203" width="14.1" height="4.3" fill="#fff" opacity="0.4" transform="rotate(0 210 208)"/><rect x="180" y="187" width="64" height="36" fill="#f6f0e4" rx="2" transform="rotate(0 212 205)"/><rect x="189" y="197.8" width="46.1" height="14.4" fill="#d8dbdf" rx="1.5" transform="rotate(0 212 205)"/><rect x="191.5" y="200" width="14.1" height="4.3" fill="#fff" opacity="0.4" transform="rotate(0 212 205)"/><rect x="182" y="184" width="64" height="36" fill="#f6f0e4" rx="2" transform="rotate(0 214 202)"/><rect x="191" y="194.8" width="46.1" height="14.4" fill="#d8dbdf" rx="1.5" transform="rotate(0 214 202)"/><rect x="193.5" y="197" width="14.1" height="4.3" fill="#fff" opacity="0.4" transform="rotate(0 214 202)"/><rect x="214" y="214" width="72" height="40" fill="#f6f0e4" rx="2" transform="rotate(-8 250 234)"/><rect x="224.1" y="226" width="51.8" height="16" fill="#d8dbdf" rx="1.5" transform="rotate(-8 250 234)"/><rect x="227" y="228.4" width="15.8" height="4.8" fill="#fff" opacity="0.4" transform="rotate(-8 250 234)"/><ellipse cx="304" cy="208" rx="50" ry="7" fill="#7d9690" opacity="0.16"/><rect x="248" y="186" width="58" height="32" fill="#f6f0e4" rx="2" transform="rotate(12 277 202)"/><rect x="256.1" y="195.6" width="41.8" height="12.8" fill="#d8dbdf" rx="1.5" transform="rotate(12 277 202)"/><rect x="258.4" y="197.5" width="12.8" height="3.8" fill="#fff" opacity="0.4" transform="rotate(12 277 202)"/><rect x="270" y="194" width="60" height="34" fill="#f6f0e4" rx="2" transform="rotate(-9 300 211)"/><rect x="278.4" y="204.2" width="43.2" height="13.6" fill="#d8dbdf" rx="1.5" transform="rotate(-9 300 211)"/><rect x="280.8" y="206.2" width="13.2" height="4.1" fill="#fff" opacity="0.4" transform="rotate(-9 300 211)"/><rect x="300" y="188" width="56" height="30" fill="#f0e2c6" rx="2" transform="rotate(7 328 203)"/><rect x="303" y="191" width="5.5" height="24" fill="#c6cad0" rx="1" transform="rotate(7 328 203)"/><rect x="304.2" y="193" width="2.2" height="9" fill="#fff" opacity="0.45" transform="rotate(7 328 203)"/><rect x="314.6" y="197" width="33.6" height="10.8" fill="#d8dbdf" rx="1.2" transform="rotate(7 328 203)"/><g transform="translate(274 196) rotate(-16 27 12)"><rect x="0" y="0" width="54" height="24" fill="#7ba08b" rx="1.4" stroke="#39332f" stroke-width="0.6" stroke-opacity="0.45"/><rect x="0" y="0" width="54" height="24" fill="url(#hy-paper)" rx="1.4" opacity="0.3"/><rect x="1.8" y="1.8" width="50.4" height="20.4" fill="none" stroke="#ddebdb" stroke-width="0.85" rx="1"/><circle cx="14" cy="12" r="7.2" fill="none" stroke="#307161" stroke-width="1"/><circle cx="14" cy="12" r="4.3" fill="#ddebdb" opacity="0.7"/><text x="14" y="13" text-anchor="middle" dominant-baseline="middle" font-family="Microsoft YaHei,sans-serif" font-size="9.600000000000001" font-weight="700" fill="#307161">$</text><circle cx="42.1" cy="12" r="3.8" fill="none" stroke="#307161" stroke-width="0.8" opacity="0.7"/><rect x="24.8" y="5.3" width="8.6" height="2.9" fill="#ddebdb" opacity="0.45" rx="0.4"/><rect x="24.8" y="10.1" width="10.8" height="1.9" fill="#307161" opacity="0.18" rx="0.4"/><rect x="24.8" y="13.9" width="7.6" height="2.4" fill="#ddebdb" opacity="0.35" rx="0.4"/></g><g transform="translate(300 202) rotate(11 28 12.5)"><rect x="0" y="0" width="56" height="25" fill="#7ba08b" rx="1.4" stroke="#39332f" stroke-width="0.6" stroke-opacity="0.45"/><rect x="0" y="0" width="56" height="25" fill="url(#hy-paper)" rx="1.4" opacity="0.3"/><rect x="1.8" y="1.8" width="52.4" height="21.4" fill="none" stroke="#ddebdb" stroke-width="0.85" rx="1"/><circle cx="14.6" cy="12.5" r="7.5" fill="none" stroke="#307161" stroke-width="1"/><circle cx="14.6" cy="12.5" r="4.5" fill="#ddebdb" opacity="0.7"/><text x="14.6" y="13.5" text-anchor="middle" dominant-baseline="middle" font-family="Microsoft YaHei,sans-serif" font-size="10" font-weight="700" fill="#307161">$</text><circle cx="43.7" cy="12.5" r="4" fill="none" stroke="#307161" stroke-width="0.8" opacity="0.7"/><rect x="25.8" y="5.5" width="9" height="3" fill="#ddebdb" opacity="0.45" rx="0.4"/><rect x="25.8" y="10.5" width="11.2" height="2" fill="#307161" opacity="0.18" rx="0.4"/><rect x="25.8" y="14.5" width="7.8" height="2.5" fill="#ddebdb" opacity="0.35" rx="0.4"/></g><g transform="translate(282 208) rotate(-5 25 11)"><rect x="0" y="0" width="50" height="22" fill="#7ba08b" rx="1.4" stroke="#39332f" stroke-width="0.6" stroke-opacity="0.45"/><rect x="0" y="0" width="50" height="22" fill="url(#hy-paper)" rx="1.4" opacity="0.3"/><rect x="1.8" y="1.8" width="46.4" height="18.4" fill="none" stroke="#ddebdb" stroke-width="0.85" rx="1"/><circle cx="13" cy="11" r="6.6" fill="none" stroke="#307161" stroke-width="1"/><circle cx="13" cy="11" r="4" fill="#ddebdb" opacity="0.7"/><text x="13" y="11.9" text-anchor="middle" dominant-baseline="middle" font-family="Microsoft YaHei,sans-serif" font-size="8.8" font-weight="700" fill="#307161">$</text><circle cx="39" cy="11" r="3.5" fill="none" stroke="#307161" stroke-width="0.8" opacity="0.7"/><rect x="23" y="4.8" width="8" height="2.6" fill="#ddebdb" opacity="0.45" rx="0.4"/><rect x="23" y="9.2" width="10" height="1.8" fill="#307161" opacity="0.18" rx="0.4"/><rect x="23" y="12.8" width="7" height="2.2" fill="#ddebdb" opacity="0.35" rx="0.4"/></g><rect x="0" y="0" width="480" height="300" fill="url(#hy-vignette)" opacity="0.38"/></svg>
